<svg xmlns="http://www.w3.org/2000/svg" xmlns:xlink="http://www.w3.org/1999/xlink" viewBox="14753 6337 1920 2925">
  <defs>
    <style>
      .cls-1 {
        clip-path: url(#clip-Advertisement);
      }

      .cls-10, .cls-2 {
        fill: none;
      }

      .cls-2, .cls-9 {
        stroke: #95989a;
      }

      .cls-3, .cls-9 {
        fill: #fff;
      }

      .cls-4 {
        fill-rule: evenodd;
      }

      .cls-5 {
        font-size: 13px;
      }

      .cls-5, .cls-7, .cls-8 {
        font-family: Arial-BoldMT, Arial;
        font-weight: 700;
      }

      .cls-14, .cls-6 {
        font-size: 14px;
        font-family: ArialMT, Arial;
      }

      .cls-7 {
        font-size: 18px;
      }

      .cls-8 {
        font-size: 12px;
      }

      .cls-11, .cls-13, .cls-14 {
        fill: #939393;
      }

      .cls-11 {
        font-size: 15px;
        font-family: Helvetica;
      }

      .cls-12 {
        fill: #ddd;
      }

      .cls-13 {
        font-size: 35px;
        font-family: Georgia;
      }

      .cls-15 {
        fill: #e6d7a5;
      }

      .cls-16 {
        stroke: none;
      }
    </style>
    <clipPath id="clip-Advertisement">
      <rect x="14753" y="6337" width="1920" height="2925"/>
    </clipPath>
  </defs>
  <g id="Advertisement" class="cls-1">
    <rect class="cls-3" x="14753" y="6337" width="1920" height="2925"/>
    <line id="Line_9" data-name="Line 9" class="cls-2" x2="1592" transform="translate(14900.5 6513.5)"/>
    <g id="Group_458" data-name="Group 458" transform="translate(14749 4394)">
      <g id="Group_456" data-name="Group 456" transform="translate(0 3149)">
        <rect id="Base" class="cls-3" width="1927" height="321.167" transform="translate(-3 1330.924)"/>
        <path id="Path_688" data-name="Path 688" class="cls-4" d="M86.349,18.735V10.2h2.914l.416-3.331H86.349V4.788c0-.937.312-1.665,1.665-1.665h1.769V.1c-.416,0-1.457-.1-2.6-.1a4.018,4.018,0,0,0-4.267,4.371v2.5H80V10.2h2.914v8.535Z" transform="translate(1766.385 1676.178)"/>
        <path id="Path_689" data-name="Path 689" class="cls-4" d="M43.933,17.2A10.831,10.831,0,0,0,54.861,6.267v-.52a8.46,8.46,0,0,0,1.873-1.978,8.64,8.64,0,0,1-2.186.624,4.049,4.049,0,0,0,1.665-2.082,9.547,9.547,0,0,1-2.394.937A3.717,3.717,0,0,0,51.01,2a3.91,3.91,0,0,0-3.851,3.851,2.029,2.029,0,0,0,.1.833,10.761,10.761,0,0,1-7.91-4.059,3.986,3.986,0,0,0-.52,1.978A4.135,4.135,0,0,0,40.5,7.829a3.509,3.509,0,0,1-1.769-.52h0a3.8,3.8,0,0,0,3.122,3.747,3.209,3.209,0,0,1-1.041.1,1.771,1.771,0,0,1-.729-.1,3.943,3.943,0,0,0,3.643,2.706,7.858,7.858,0,0,1-4.788,1.665,2.882,2.882,0,0,1-.937-.1A9.824,9.824,0,0,0,43.933,17.2" transform="translate(1749.504 1675.516)"/>
        <path id="Path_690" data-name="Path 690" class="cls-4" d="M9.367,1.665a28.722,28.722,0,0,1,3.747.1,4.827,4.827,0,0,1,1.769.312,3.655,3.655,0,0,1,1.769,1.769,4.827,4.827,0,0,1,.312,1.769c0,.937.1,1.249.1,3.747a28.722,28.722,0,0,1-.1,3.747,4.828,4.828,0,0,1-.312,1.769,3.655,3.655,0,0,1-1.769,1.769,4.827,4.827,0,0,1-1.769.312c-.937,0-1.249.1-3.747.1a28.722,28.722,0,0,1-3.747-.1,4.828,4.828,0,0,1-1.769-.312,3.655,3.655,0,0,1-1.769-1.769,4.827,4.827,0,0,1-.312-1.769c0-.937-.1-1.249-.1-3.747a28.722,28.722,0,0,1,.1-3.747,4.827,4.827,0,0,1,.312-1.769A3.738,3.738,0,0,1,2.81,2.81a1.76,1.76,0,0,1,1.041-.729A4.827,4.827,0,0,1,5.62,1.769a28.722,28.722,0,0,1,3.747-.1M9.367,0A30.753,30.753,0,0,0,5.516.1,6.426,6.426,0,0,0,3.227.52,4.075,4.075,0,0,0,1.561,1.561,4.075,4.075,0,0,0,.52,3.227,4.742,4.742,0,0,0,.1,5.516,30.753,30.753,0,0,0,0,9.367a30.753,30.753,0,0,0,.1,3.851,6.426,6.426,0,0,0,.416,2.29,4.075,4.075,0,0,0,1.041,1.665,4.075,4.075,0,0,0,1.665,1.041,6.426,6.426,0,0,0,2.29.416,30.753,30.753,0,0,0,3.851.1,30.753,30.753,0,0,0,3.851-.1,6.426,6.426,0,0,0,2.29-.416,4.367,4.367,0,0,0,2.706-2.706,6.426,6.426,0,0,0,.416-2.29c0-1.041.1-1.353.1-3.851a30.753,30.753,0,0,0-.1-3.851,6.426,6.426,0,0,0-.416-2.29,4.075,4.075,0,0,0-1.041-1.665A4.075,4.075,0,0,0,15.508.52,6.426,6.426,0,0,0,13.218.1,30.753,30.753,0,0,0,9.367,0m0,4.58A4.711,4.711,0,0,0,4.58,9.367,4.788,4.788,0,1,0,9.367,4.58m0,7.91A3.067,3.067,0,0,1,6.245,9.367,3.067,3.067,0,0,1,9.367,6.245,3.067,3.067,0,0,1,12.49,9.367,3.067,3.067,0,0,1,9.367,12.49m5-9.263a1.145,1.145,0,1,0,1.145,1.145,1.155,1.155,0,0,0-1.145-1.145" transform="translate(1728.623 1676.178)"/>
        <text id="CONTACT_US_ORDERING_PAYMENT_SHIPPING_RETURNS_FAQ_SIZING_GUIDE" data-name="CONTACT USORDERING &amp; PAYMENTSHIPPINGRETURNSFAQSIZING GUIDE" class="cls-5" transform="translate(1271.235 1409.833)"><tspan x="0" y="0">CONTACT US</tspan><tspan x="0" y="34">ORDERING &amp; PAYMENT</tspan><tspan x="0" y="68">SHIPPING</tspan><tspan x="0" y="102">RETURNS</tspan><tspan x="0" y="136">FAQ</tspan><tspan x="0" y="170">SIZING GUIDE</tspan></text>
        <text id="ABOUT_ADOBE_XD_KIT_WORK_WITH_US_PRIVACY_POLICY_TERMS_CONDITIONS_PRESS_ENQUIRIES" data-name="ABOUT ADOBE XD KITWORK WITH USPRIVACY POLICYTERMS &amp; CONDITIONSPRESS ENQUIRIES" class="cls-5" transform="translate(1509.434 1409.833)"><tspan x="0" y="0">ABOUT ADOBE XD KIT</tspan><tspan x="0" y="34">WORK WITH US</tspan><tspan x="0" y="68">PRIVACY POLICY</tspan><tspan x="0" y="102">TERMS &amp; CONDITIONS</tspan><tspan x="0" y="136">PRESS ENQUIRIES</tspan></text>
        <text id="Excepteur_sint_occaecat_cupidatat_non_proident_sunt_in_culpa_qui_officia" data-name="Excepteur sint occaecat cupidatat non proident, sunt in culpa qui officia" class="cls-6" transform="translate(275.91 1446.008)"><tspan x="0" y="13">Excepteur sint occaecat cupidatat non proident, sunt in culpa qui officia</tspan></text>
        <text id="Subscribe_to_AdobeXD_via_Email" data-name="Subscribe to AdobeXD via Email" class="cls-7" transform="translate(275.91 1413.833)"><tspan x="0" y="0">Subscribe to AdobeXD via Email</tspan></text>
        <g id="Symbol_46" data-name="Symbol 46" transform="translate(371.694 1526.3)">
          <rect id="Rectangle_1" data-name="Rectangle 1" class="cls-3" width="160.583" height="53.528" rx="4" transform="translate(-95)"/>
          <text id="SUBSCRIBE" class="cls-8" transform="translate(-18.516 31.073)"><tspan x="-35.338" y="0">SUBSCRIBE</tspan></text>
        </g>
        <text id="_44_345_678_903_ADOBEXD_MAIL.COM_FIND_A_STORE" data-name="+44 345 678 903ADOBEXD@MAIL.COMFIND A STORE" class="cls-5" transform="translate(1043.742 1409.833)"><tspan x="0" y="0">+44 345 678 903</tspan><tspan x="0" y="34">ADOBEXD@MAIL.COM</tspan><tspan x="0" y="68">FIND A STORE</tspan></text>
        <line id="Line_45" data-name="Line 45" class="cls-2" x2="1706" transform="translate(106.5 1651.5)"/>
        <line id="Line_46" data-name="Line 46" class="cls-2" x2="1706" transform="translate(106.5 1326.5)"/>
      </g>
      <g id="Rectangle_535" data-name="Rectangle 535" class="cls-9" transform="translate(-3 4800)">
        <rect class="cls-16" width="128" height="68"/>
        <rect class="cls-10" x="0.5" y="0.5" width="127" height="67"/>
      </g>
    </g>
    <g id="Symbol_60" data-name="Symbol 60" transform="translate(16346.514 6419.856)">
      <rect id="Rectangle_392" data-name="Rectangle 392" class="cls-10" width="21.943" height="18.286" transform="translate(0 0)"/>
      <path id="Path_1" data-name="Path 1" class="cls-4" d="M86.2,18.286V9.956h2.844L89.448,6.7H86.2V4.673c0-.914.3-1.625,1.625-1.625h1.727V.1c-.406,0-1.422-.1-2.54-.1a3.921,3.921,0,0,0-4.165,4.267V6.7H80V9.956h2.844v8.33Z" transform="translate(-74.514 0.001)"/>
    </g>
    <g id="Symbol_61" data-name="Symbol 61" transform="translate(16288.914 6419.858)">
      <rect id="Rectangle_393" data-name="Rectangle 393" class="cls-10" width="21.943" height="18.286" transform="translate(0)"/>
      <path id="Path_2" data-name="Path 2" class="cls-4" d="M43.79,16.832A10.572,10.572,0,0,0,54.457,6.165V5.657a8.258,8.258,0,0,0,1.829-1.93,8.433,8.433,0,0,1-2.133.61A3.952,3.952,0,0,0,55.778,2.3a9.318,9.318,0,0,1-2.337.914A3.628,3.628,0,0,0,50.7,2,3.817,3.817,0,0,0,46.94,5.759a1.98,1.98,0,0,0,.1.813A10.5,10.5,0,0,1,39.321,2.61a3.89,3.89,0,0,0-.508,1.93,4.036,4.036,0,0,0,1.625,3.149,3.425,3.425,0,0,1-1.727-.508h0a3.713,3.713,0,0,0,3.048,3.657,3.132,3.132,0,0,1-1.016.1,1.729,1.729,0,0,1-.711-.1,3.849,3.849,0,0,0,3.556,2.641A7.67,7.67,0,0,1,38.914,15.1,2.812,2.812,0,0,1,38,15a9.589,9.589,0,0,0,5.79,1.829" transform="translate(-38 0.285)"/>
    </g>
    <g id="Symbol_62" data-name="Symbol 62" transform="translate(16225.828 6419.857)">
      <path id="Path_3" data-name="Path 3" class="cls-4" d="M9.143,1.625a28.034,28.034,0,0,1,3.657.1,4.712,4.712,0,0,1,1.727.3,3.568,3.568,0,0,1,1.727,1.727,4.712,4.712,0,0,1,.3,1.727c0,.914.1,1.219.1,3.657a28.034,28.034,0,0,1-.1,3.657,4.712,4.712,0,0,1-.3,1.727,3.568,3.568,0,0,1-1.727,1.727,4.712,4.712,0,0,1-1.727.3c-.914,0-1.219.1-3.657.1a28.034,28.034,0,0,1-3.657-.1,4.712,4.712,0,0,1-1.727-.3,3.568,3.568,0,0,1-1.727-1.727,4.712,4.712,0,0,1-.3-1.727c0-.914-.1-1.219-.1-3.657a28.034,28.034,0,0,1,.1-3.657,4.712,4.712,0,0,1,.3-1.727,3.649,3.649,0,0,1,.711-1.016,1.718,1.718,0,0,1,1.016-.711,4.712,4.712,0,0,1,1.727-.3,28.034,28.034,0,0,1,3.657-.1M9.143,0A30.016,30.016,0,0,0,5.384.1,6.272,6.272,0,0,0,3.149.508,3.977,3.977,0,0,0,1.524,1.524,3.977,3.977,0,0,0,.508,3.149,4.629,4.629,0,0,0,.1,5.384,30.016,30.016,0,0,0,0,9.143,30.016,30.016,0,0,0,.1,12.9a6.272,6.272,0,0,0,.406,2.235,3.977,3.977,0,0,0,1.016,1.625,3.977,3.977,0,0,0,1.625,1.016,6.272,6.272,0,0,0,2.235.406,30.016,30.016,0,0,0,3.759.1,30.016,30.016,0,0,0,3.759-.1,6.272,6.272,0,0,0,2.235-.406,4.262,4.262,0,0,0,2.641-2.641,6.272,6.272,0,0,0,.406-2.235c0-1.016.1-1.321.1-3.759a30.016,30.016,0,0,0-.1-3.759,6.272,6.272,0,0,0-.406-2.235,3.977,3.977,0,0,0-1.016-1.625A3.977,3.977,0,0,0,15.137.508,6.272,6.272,0,0,0,12.9.1,30.016,30.016,0,0,0,9.143,0m0,4.47A4.6,4.6,0,0,0,4.47,9.143,4.673,4.673,0,1,0,9.143,4.47m0,7.721A2.993,2.993,0,0,1,6.1,9.143,2.993,2.993,0,0,1,9.143,6.1,2.993,2.993,0,0,1,12.19,9.143,2.993,2.993,0,0,1,9.143,12.19m4.876-9.041a1.117,1.117,0,1,0,1.117,1.117,1.127,1.127,0,0,0-1.117-1.117" transform="translate(0 0)"/>
    </g>
    <g id="Symbol_63" data-name="Symbol 63" transform="translate(16410.973 6419.857)">
      <path id="Path_4" data-name="Path 4" d="M2.743,2.743A8.3,8.3,0,0,1,9.143,0a8.3,8.3,0,0,1,6.4,2.743,8.3,8.3,0,0,1,2.743,6.4,8.3,8.3,0,0,1-2.743,6.4,8.3,8.3,0,0,1-6.4,2.743,8.3,8.3,0,0,1-6.4-2.743A9.124,9.124,0,0,1,0,9.143,8.3,8.3,0,0,1,2.743,2.743Zm7.619,13.714a3.744,3.744,0,0,0,2.286-1.371,6.656,6.656,0,0,0,1.067-3.2,2.523,2.523,0,0,0-.762-1.829,2.682,2.682,0,0,0-1.981-.914H9.448a4.449,4.449,0,0,1-1.371-.3,1.383,1.383,0,0,1-.457-1.067.792.792,0,0,1,.3-.61,1.155,1.155,0,0,1,.61-.3,1.04,1.04,0,0,1,.762.457c.3.152.457.3.61.3a.916.916,0,0,0,.61-.152.916.916,0,0,0,.152-.61A2.425,2.425,0,0,0,9.9,5.333a6.3,6.3,0,0,0,.762-2.9.328.328,0,0,0-.3-.3,4.711,4.711,0,0,0-1.219-.3A7.623,7.623,0,0,0,5.181,3.048,3.836,3.836,0,0,0,3.81,6.1a3.9,3.9,0,0,0,1.219,2.9,4.163,4.163,0,0,0,2.9,1.219h0v.61a1.956,1.956,0,0,0,.61,1.524,2.219,2.219,0,0,0,1.371.914V16c0,.152,0,.152.152.3S10.21,16.457,10.362,16.457Z" transform="translate(0 0)"/>
    </g>
    <text id="ABOUT_US" data-name="ABOUT US" class="cls-11" transform="translate(15536.457 6433.286)"><tspan x="0" y="0">ABOUT US</tspan></text>
    <text id="CASE_STUDIES" data-name="CASE STUDIES" class="cls-11" transform="translate(15674.229 6433.286)"><tspan x="0" y="0">CASE STUDIES</tspan></text>
    <text id="BLOG" class="cls-11" transform="translate(15835.629 6433.286)"><tspan x="0" y="0">BLOG</tspan></text>
    <text id="CONTACT" class="cls-11" transform="translate(15940.6 6433.286)"><tspan x="0" y="0">CONTACT</tspan></text>
    <path id="Path_697" data-name="Path 697" class="cls-12" d="M22.818,62.089H0V56.253H17.676V49.5H22.79v12.59Zm0-33.546-3.307,1.112v7.921l3.307,1.2v6.253L0,35.881V31.295l22.818-9.06ZM7.087,33.518V33.6l7.81,2.335v-4.78ZM20.845,2.084c2,2.335,1.973,4.5,1.973,7.448v7.254H0V9.755C0,7.032.028,4.447,2.223,2.474A5.313,5.313,0,0,1,5.975,1.112a5.111,5.111,0,0,1,4.586,2.64A5.207,5.207,0,0,1,15.87,0,6.614,6.614,0,0,1,20.845,2.084ZM5.114,8.977v2.251H8.671V9C8.671,7.754,8.31,6.7,6.865,6.7,5.392,6.7,5.114,7.754,5.114,8.977Zm8.421-.695V11.2H17.7V8.31c0-1.445-.5-2.751-2.2-2.751C13.869,5.586,13.535,6.92,13.535,8.282ZM66.258,0C52.89,0,42.579,9.644,42.579,23.179c0,8,3.78,15.092,11.145,18.732a18.094,18.094,0,0,0,8.088,1.973,9.068,9.068,0,0,0,2.974-.334l.167.167L51.5,62.2H69.566L84.741,39.855c3.557-5.2,5.864-10.561,5.864-16.9,0-5.447-1.39-10.728-5.114-14.925C80.711,2.557,73.429,0,66.258,0Zm.334,31.378a9.45,9.45,0,1,1,9.45-9.45A9.442,9.442,0,0,1,66.592,31.378ZM97.164,0h15.592V62.173H97.164V0Zm50.694,18.288a8.823,8.823,0,0,0-2.974.334l-.167-.167L158.169.056H140.1L124.929,22.318c-3.307,4.864-5.614,10.395-5.614,16.314,0,14.091,10.228,23.6,24.069,23.6,13.368,0,23.68-9.811,23.68-23.263C167.063,27.848,159.392,18.288,147.858,18.288Zm-4.78,31.406a9.45,9.45,0,1,1,9.45-9.45A9.442,9.442,0,0,1,143.078,49.694ZM33.907.056H32.8V62.228h1.112Z" transform="translate(14996.019 6406.836)"/>
    <line id="Line_52" data-name="Line 52" class="cls-2" x2="1592" transform="translate(14887.5 7415.5)"/>
    <text id="What_We_do" data-name="What We do" class="cls-13" transform="translate(15162.91 7619.297)"><tspan x="0" y="0">What We do</tspan></text>
    <text id="Lab_916_a_creative_marketing_agency_in_Sacramento_CA_that_helps_Amazon_sellers_get_more_sales._We_take_the_guesswork_out_of_selling_on_Amazon_by_crafting_compelling_persuasive_listings_improving_PPC_performance_and_driving_sales._In_short:_you_have_th" data-name="Lab 916 a creative marketing agency in Sacramento, CA, that helps Amazon sellers get more sales. We take the guesswork out of selling on Amazon by crafting compelling, persuasive listings, improving PPC performance, and driving sales. In short: you have th" class="cls-14" transform="translate(15162.91 7666.924)"><tspan x="0" y="13">Lab 916 a creative marketing agency in Sacramento, CA, that helps </tspan><tspan x="0" y="37">Amazon sellers get more sales. We take the guesswork out of selling </tspan><tspan x="0" y="61">on Amazon by crafting compelling, persuasive listings, improving PPC </tspan><tspan x="0" y="85">performance, and driving sales. In short: you have the amazing </tspan><tspan x="0" y="109">products, and we have the skills and expertise to get them into </tspan><tspan x="0" y="133">customer’s hands. </tspan><tspan x="0" y="157"></tspan><tspan x="0" y="181">We want to help your brand grow, and in today’s increasingly </tspan><tspan x="0" y="205">competitive digital marketplace, Amazon is the premier online channel. </tspan><tspan x="0" y="229">We are well versed in the backend of Amazon and have an acute </tspan><tspan x="0" y="253">understanding of what drives success— valuable expertise that we are </tspan><tspan x="0" y="277">eager to share with you. </tspan><tspan x="0" y="301"></tspan><tspan x="0" y="325">Our process has been designed to drive results, tested, re-tested, and </tspan><tspan x="0" y="349">proven to be effective through over 50 clients that we’ve elevated to </tspan><tspan x="0" y="373">success so far. We create and optimize Amazon listings that grow your </tspan><tspan x="0" y="397">conversion rates, using data from all your competitors in conjunction </tspan><tspan x="0" y="421">with conversion rate optimization. We maximize the results of every </tspan><tspan x="0" y="445">PPC channel you use to drive more sales. Then, as your brand grows </tspan><tspan x="0" y="469">and sales increase, we’re always looking to other areas of your </tspan><tspan x="0" y="493">Amazon business to improve.</tspan></text>
    <text id="Who_we_are" data-name="Who we are" class="cls-13" transform="translate(15870.91 8337.717)"><tspan x="0" y="0">Who we are</tspan></text>
    <text id="We_are_a_tight-knit_group_of_professionals_with_a_diverse_set_of_skills_passionate_about_finding_unique_solutions_to_see_your_business_grow._We_are_truly_invested_in_each_one_of_our_clients_approaching_each_business_as_if_it_is_our_own._Our_team_will_adv" data-name="We are a tight-knit group of professionals with a diverse set of skills, passionate about finding unique solutions to see your business grow. We are truly invested in each one of our clients, approaching each business as if it is our own. Our team will adv" class="cls-14" transform="translate(15870.91 8385.345)"><tspan x="0" y="13">We are a tight-knit group of professionals with a diverse set of skills, </tspan><tspan x="0" y="37">passionate about finding unique solutions to see your business grow. </tspan><tspan x="0" y="61">We are truly invested in each one of our clients, approaching each </tspan><tspan x="0" y="85">business as if it is our own. Our team will advocate for you, invest in </tspan><tspan x="0" y="109">your success, and be completely transparent as we keep you updated </tspan><tspan x="0" y="133">on our progress. Working with us means pushing your brand beyond </tspan><tspan x="0" y="157">expectations to achieve the success that you deserve.</tspan><tspan x="0" y="181"></tspan><tspan x="0" y="205">With expertise in all fields necessary to help your business grow and </tspan><tspan x="0" y="229">thrive on Amazon, an authentic enthusiasm for our work, and a drive </tspan><tspan x="0" y="253">for success, we at Lab 916 are excited to work with you.</tspan><tspan x="0" y="277"></tspan><tspan x="0" y="301">Meet the team! (link)</tspan></text>
    <g id="Testimonials_1" data-name="Testimonials 1" transform="translate(15694.647 7587.583)">
      <rect id="Photo" class="cls-15" width="618.443" height="573.091" transform="translate(0 0)"/>
    </g>
    <g id="Testimonials_1-2" data-name="Testimonials 1" transform="translate(15162.647 8303.004)">
      <rect id="Photo-2" data-name="Photo" class="cls-15" width="618.443" height="395.091" transform="translate(0 0)"/>
    </g>
  </g>
</svg>
