<svg xmlns="http://www.w3.org/2000/svg" xmlns:xlink="http://www.w3.org/1999/xlink" viewBox="7906 2844 1920 2924">
  <defs>
    <style>
      .cls-1 {
        clip-path: url(#clip-Team);
      }

      .cls-2 {
        fill: #f5f5f5;
      }

      .cls-16, .cls-3 {
        fill: #fff;
      }

      .cls-4, .cls-5, .cls-6, .cls-8, .cls-9 {
        fill: #2699fb;
      }

      .cls-4 {
        font-size: 20px;
      }

      .cls-12, .cls-14, .cls-15, .cls-4, .cls-5 {
        font-family: Arial-BoldMT, Arial;
        font-weight: 700;
      }

      .cls-5 {
        font-size: 10px;
      }

      .cls-13, .cls-6 {
        font-size: 14px;
        font-family: ArialMT, Arial;
      }

      .cls-7 {
        fill: #bce0fd;
      }

      .cls-11, .cls-8 {
        fill-rule: evenodd;
      }

      .cls-10, .cls-17 {
        fill: none;
      }

      .cls-10, .cls-16 {
        stroke: #95989a;
      }

      .cls-12 {
        font-size: 13px;
      }

      .cls-14 {
        font-size: 18px;
      }

      .cls-15 {
        font-size: 12px;
      }

      .cls-18 {
        fill: #939393;
        font-size: 15px;
        font-family: Helvetica;
      }

      .cls-19 {
        fill: #ddd;
      }

      .cls-20 {
        stroke: none;
      }
    </style>
    <clipPath id="clip-Team">
      <rect x="7906" y="2844" width="1920" height="2924"/>
    </clipPath>
  </defs>
  <g id="Team" class="cls-1">
    <rect class="cls-3" x="7906" y="2844" width="1920" height="2924"/>
    <rect id="Base" class="cls-2" width="1920" height="1451" transform="translate(7906 3925)"/>
    <g id="Team_Member" data-name="Team Member" transform="translate(8725.429 4026.93)">
      <rect id="Rectangle_114" data-name="Rectangle 114" class="cls-3" width="320" height="160" transform="translate(160 230)"/>
      <text id="Name_Surname" data-name="Name Surname" class="cls-4" transform="translate(160 448)"><tspan x="0" y="0">Name Surname</tspan></text>
      <text id="CO-FOUNDER_CTO" data-name="CO-FOUNDER &amp; CTO" class="cls-5" transform="translate(160 469)"><tspan x="0" y="0">CO-FOUNDER &amp; CTO</tspan></text>
      <text id="Lorem_ipsum_dolor_sit_amet_consectetur_adipisicing_elit_sed_do_eiusmod_tempor_incididunt_ut_ero_labore_et_dolore." data-name="Lorem ipsum dolor sit amet, consectetur adipisicing elit, sed do eiusmod tempor incididunt ut ero labore et dolore." class="cls-6" transform="translate(160 481)"><tspan x="0" y="13">Lorem ipsum dolor sit amet, consectetur adipisicing </tspan><tspan x="0" y="37">elit, sed do eiusmod tempor incididunt ut ero labore </tspan><tspan x="0" y="61">et dolore.</tspan></text>
      <path id="avatar" class="cls-7" d="M0,598.166V567.645C0,534.073,54.938,506.6,122.082,506.6s122.082,27.469,122.082,61.042v30.521ZM61.041,415.043a61.041,61.041,0,1,1,61.041,61.042A61.041,61.041,0,0,1,61.041,415.043Z" transform="translate(162 -208.167)"/>
      <g id="Social_Links" data-name="Social Links" transform="translate(-1089 -278)">
        <g id="Facebook">
          <path id="Path_1" data-name="Path 1" class="cls-8" d="M85.422,16V8.711h2.489l.356-2.844H85.422V4.089c0-.8.267-1.422,1.422-1.422h1.511V.089C88,.089,87.111,0,86.133,0a3.431,3.431,0,0,0-3.644,3.733V5.867H80V8.711h2.489V16Z" transform="translate(1261 844)"/>
        </g>
        <g id="Twitter">
          <path id="Path_2" data-name="Path 2" class="cls-8" d="M43.067,14.978A9.25,9.25,0,0,0,52.4,5.644V5.2A7.225,7.225,0,0,0,54,3.511a7.379,7.379,0,0,1-1.867.533,3.458,3.458,0,0,0,1.422-1.778,8.153,8.153,0,0,1-2.044.8A3.175,3.175,0,0,0,49.111,2a3.34,3.34,0,0,0-3.289,3.289A1.733,1.733,0,0,0,45.911,6a9.19,9.19,0,0,1-6.756-3.467,3.4,3.4,0,0,0-.444,1.689,3.532,3.532,0,0,0,1.422,2.756,3,3,0,0,1-1.511-.444h0a3.249,3.249,0,0,0,2.667,3.2,2.74,2.74,0,0,1-.889.089,1.513,1.513,0,0,1-.622-.089,3.367,3.367,0,0,0,3.111,2.311A6.711,6.711,0,0,1,38.8,13.467a2.461,2.461,0,0,1-.8-.089,8.39,8.39,0,0,0,5.067,1.6" transform="translate(1257 844)"/>
        </g>
        <g id="Instagram">
          <path id="Path_3" data-name="Path 3" class="cls-8" d="M8,1.422a24.53,24.53,0,0,1,3.2.089,4.123,4.123,0,0,1,1.511.267,3.122,3.122,0,0,1,1.511,1.511A4.123,4.123,0,0,1,14.489,4.8c0,.8.089,1.067.089,3.2a24.53,24.53,0,0,1-.089,3.2,4.123,4.123,0,0,1-.267,1.511,3.122,3.122,0,0,1-1.511,1.511,4.123,4.123,0,0,1-1.511.267c-.8,0-1.067.089-3.2.089a24.53,24.53,0,0,1-3.2-.089,4.123,4.123,0,0,1-1.511-.267,3.122,3.122,0,0,1-1.511-1.511A4.123,4.123,0,0,1,1.511,11.2c0-.8-.089-1.067-.089-3.2a24.53,24.53,0,0,1,.089-3.2,4.123,4.123,0,0,1,.267-1.511A3.192,3.192,0,0,1,2.4,2.4a1.5,1.5,0,0,1,.889-.622A4.123,4.123,0,0,1,4.8,1.511,24.53,24.53,0,0,1,8,1.422M8,0A26.264,26.264,0,0,0,4.711.089,5.488,5.488,0,0,0,2.756.444a3.48,3.48,0,0,0-1.422.889A3.48,3.48,0,0,0,.444,2.756,4.05,4.05,0,0,0,.089,4.711,26.264,26.264,0,0,0,0,8a26.264,26.264,0,0,0,.089,3.289,5.488,5.488,0,0,0,.356,1.956,3.48,3.48,0,0,0,.889,1.422,3.48,3.48,0,0,0,1.422.889,5.488,5.488,0,0,0,1.956.356A26.264,26.264,0,0,0,8,16a26.264,26.264,0,0,0,3.289-.089,5.488,5.488,0,0,0,1.956-.356,3.729,3.729,0,0,0,2.311-2.311,5.488,5.488,0,0,0,.356-1.956C15.911,10.4,16,10.133,16,8a26.264,26.264,0,0,0-.089-3.289,5.488,5.488,0,0,0-.356-1.956,3.48,3.48,0,0,0-.889-1.422A3.48,3.48,0,0,0,13.244.444,5.488,5.488,0,0,0,11.289.089,26.264,26.264,0,0,0,8,0M8,3.911A4.023,4.023,0,0,0,3.911,8,4.089,4.089,0,1,0,8,3.911m0,6.756A2.619,2.619,0,0,1,5.333,8,2.619,2.619,0,0,1,8,5.333,2.619,2.619,0,0,1,10.667,8,2.619,2.619,0,0,1,8,10.667m4.267-7.911a.978.978,0,1,0,.978.978.986.986,0,0,0-.978-.978" transform="translate(1249 844)"/>
        </g>
        <g id="web">
          <path id="Path_4" data-name="Path 4" class="cls-9" d="M2.4,2.4A7.263,7.263,0,0,1,8,0a7.263,7.263,0,0,1,5.6,2.4A7.263,7.263,0,0,1,16,8a7.263,7.263,0,0,1-2.4,5.6A7.263,7.263,0,0,1,8,16a7.263,7.263,0,0,1-5.6-2.4A7.984,7.984,0,0,1,0,8,7.263,7.263,0,0,1,2.4,2.4Zm6.667,12a3.276,3.276,0,0,0,2-1.2A5.824,5.824,0,0,0,12,10.4a2.208,2.208,0,0,0-.667-1.6A2.347,2.347,0,0,0,9.6,8H8.267a3.893,3.893,0,0,1-1.2-.267,1.21,1.21,0,0,1-.4-.933.693.693,0,0,1,.267-.533A1.011,1.011,0,0,1,7.467,6a.91.91,0,0,1,.667.4c.267.133.4.267.533.267A.8.8,0,0,0,9.2,6.533.8.8,0,0,0,9.333,6a2.122,2.122,0,0,0-.667-1.333,5.515,5.515,0,0,0,.667-2.533.287.287,0,0,0-.267-.267A4.122,4.122,0,0,0,8,1.6,6.67,6.67,0,0,0,4.533,2.667a3.357,3.357,0,0,0-1.2,2.667A3.414,3.414,0,0,0,4.4,7.867,3.643,3.643,0,0,0,6.933,8.933h0v.533A1.712,1.712,0,0,0,7.467,10.8a1.942,1.942,0,0,0,1.2.8V14c0,.133,0,.133.133.267S8.933,14.4,9.067,14.4Z" transform="translate(1384 844)"/>
        </g>
      </g>
    </g>
    <g id="Team_Member-2" data-name="Team Member" transform="translate(8725.429 4588.93)">
      <rect id="Rectangle_114-2" data-name="Rectangle 114" class="cls-3" width="320" height="160" transform="translate(160 230)"/>
      <text id="Name_Surname-2" data-name="Name Surname" class="cls-4" transform="translate(160 448)"><tspan x="0" y="0">Name Surname</tspan></text>
      <text id="CO-FOUNDER_CTO-2" data-name="CO-FOUNDER &amp; CTO" class="cls-5" transform="translate(160 469)"><tspan x="0" y="0">CO-FOUNDER &amp; CTO</tspan></text>
      <text id="Lorem_ipsum_dolor_sit_amet_consectetur_adipisicing_elit_sed_do_eiusmod_tempor_incididunt_ut_ero_labore_et_dolore.-2" data-name="Lorem ipsum dolor sit amet, consectetur adipisicing elit, sed do eiusmod tempor incididunt ut ero labore et dolore." class="cls-6" transform="translate(160 481)"><tspan x="0" y="13">Lorem ipsum dolor sit amet, consectetur adipisicing </tspan><tspan x="0" y="37">elit, sed do eiusmod tempor incididunt ut ero labore </tspan><tspan x="0" y="61">et dolore.</tspan></text>
      <path id="avatar-2" data-name="avatar" class="cls-7" d="M0,598.166V567.645C0,534.073,54.938,506.6,122.082,506.6s122.082,27.469,122.082,61.042v30.521ZM61.041,415.043a61.041,61.041,0,1,1,61.041,61.042A61.041,61.041,0,0,1,61.041,415.043Z" transform="translate(162 -208.167)"/>
      <g id="Social_Links-2" data-name="Social Links" transform="translate(-1089 -278)">
        <g id="Facebook-2" data-name="Facebook">
          <path id="Path_1-2" data-name="Path 1" class="cls-8" d="M85.422,16V8.711h2.489l.356-2.844H85.422V4.089c0-.8.267-1.422,1.422-1.422h1.511V.089C88,.089,87.111,0,86.133,0a3.431,3.431,0,0,0-3.644,3.733V5.867H80V8.711h2.489V16Z" transform="translate(1261 844)"/>
        </g>
        <g id="Twitter-2" data-name="Twitter">
          <path id="Path_2-2" data-name="Path 2" class="cls-8" d="M43.067,14.978A9.25,9.25,0,0,0,52.4,5.644V5.2A7.225,7.225,0,0,0,54,3.511a7.379,7.379,0,0,1-1.867.533,3.458,3.458,0,0,0,1.422-1.778,8.153,8.153,0,0,1-2.044.8A3.175,3.175,0,0,0,49.111,2a3.34,3.34,0,0,0-3.289,3.289A1.733,1.733,0,0,0,45.911,6a9.19,9.19,0,0,1-6.756-3.467,3.4,3.4,0,0,0-.444,1.689,3.532,3.532,0,0,0,1.422,2.756,3,3,0,0,1-1.511-.444h0a3.249,3.249,0,0,0,2.667,3.2,2.74,2.74,0,0,1-.889.089,1.513,1.513,0,0,1-.622-.089,3.367,3.367,0,0,0,3.111,2.311A6.711,6.711,0,0,1,38.8,13.467a2.461,2.461,0,0,1-.8-.089,8.39,8.39,0,0,0,5.067,1.6" transform="translate(1257 844)"/>
        </g>
        <g id="Instagram-2" data-name="Instagram">
          <path id="Path_3-2" data-name="Path 3" class="cls-8" d="M8,1.422a24.53,24.53,0,0,1,3.2.089,4.123,4.123,0,0,1,1.511.267,3.122,3.122,0,0,1,1.511,1.511A4.123,4.123,0,0,1,14.489,4.8c0,.8.089,1.067.089,3.2a24.53,24.53,0,0,1-.089,3.2,4.123,4.123,0,0,1-.267,1.511,3.122,3.122,0,0,1-1.511,1.511,4.123,4.123,0,0,1-1.511.267c-.8,0-1.067.089-3.2.089a24.53,24.53,0,0,1-3.2-.089,4.123,4.123,0,0,1-1.511-.267,3.122,3.122,0,0,1-1.511-1.511A4.123,4.123,0,0,1,1.511,11.2c0-.8-.089-1.067-.089-3.2a24.53,24.53,0,0,1,.089-3.2,4.123,4.123,0,0,1,.267-1.511A3.192,3.192,0,0,1,2.4,2.4a1.5,1.5,0,0,1,.889-.622A4.123,4.123,0,0,1,4.8,1.511,24.53,24.53,0,0,1,8,1.422M8,0A26.264,26.264,0,0,0,4.711.089,5.488,5.488,0,0,0,2.756.444a3.48,3.48,0,0,0-1.422.889A3.48,3.48,0,0,0,.444,2.756,4.05,4.05,0,0,0,.089,4.711,26.264,26.264,0,0,0,0,8a26.264,26.264,0,0,0,.089,3.289,5.488,5.488,0,0,0,.356,1.956,3.48,3.48,0,0,0,.889,1.422,3.48,3.48,0,0,0,1.422.889,5.488,5.488,0,0,0,1.956.356A26.264,26.264,0,0,0,8,16a26.264,26.264,0,0,0,3.289-.089,5.488,5.488,0,0,0,1.956-.356,3.729,3.729,0,0,0,2.311-2.311,5.488,5.488,0,0,0,.356-1.956C15.911,10.4,16,10.133,16,8a26.264,26.264,0,0,0-.089-3.289,5.488,5.488,0,0,0-.356-1.956,3.48,3.48,0,0,0-.889-1.422A3.48,3.48,0,0,0,13.244.444,5.488,5.488,0,0,0,11.289.089,26.264,26.264,0,0,0,8,0M8,3.911A4.023,4.023,0,0,0,3.911,8,4.089,4.089,0,1,0,8,3.911m0,6.756A2.619,2.619,0,0,1,5.333,8,2.619,2.619,0,0,1,8,5.333,2.619,2.619,0,0,1,10.667,8,2.619,2.619,0,0,1,8,10.667m4.267-7.911a.978.978,0,1,0,.978.978.986.986,0,0,0-.978-.978" transform="translate(1249 844)"/>
        </g>
        <g id="web-2" data-name="web">
          <path id="Path_4-2" data-name="Path 4" class="cls-9" d="M2.4,2.4A7.263,7.263,0,0,1,8,0a7.263,7.263,0,0,1,5.6,2.4A7.263,7.263,0,0,1,16,8a7.263,7.263,0,0,1-2.4,5.6A7.263,7.263,0,0,1,8,16a7.263,7.263,0,0,1-5.6-2.4A7.984,7.984,0,0,1,0,8,7.263,7.263,0,0,1,2.4,2.4Zm6.667,12a3.276,3.276,0,0,0,2-1.2A5.824,5.824,0,0,0,12,10.4a2.208,2.208,0,0,0-.667-1.6A2.347,2.347,0,0,0,9.6,8H8.267a3.893,3.893,0,0,1-1.2-.267,1.21,1.21,0,0,1-.4-.933.693.693,0,0,1,.267-.533A1.011,1.011,0,0,1,7.467,6a.91.91,0,0,1,.667.4c.267.133.4.267.533.267A.8.8,0,0,0,9.2,6.533.8.8,0,0,0,9.333,6a2.122,2.122,0,0,0-.667-1.333,5.515,5.515,0,0,0,.667-2.533.287.287,0,0,0-.267-.267A4.122,4.122,0,0,0,8,1.6,6.67,6.67,0,0,0,4.533,2.667a3.357,3.357,0,0,0-1.2,2.667A3.414,3.414,0,0,0,4.4,7.867,3.643,3.643,0,0,0,6.933,8.933h0v.533A1.712,1.712,0,0,0,7.467,10.8a1.942,1.942,0,0,0,1.2.8V14c0,.133,0,.133.133.267S8.933,14.4,9.067,14.4Z" transform="translate(1384 844)"/>
        </g>
      </g>
    </g>
    <g id="Team_Member-3" data-name="Team Member" transform="translate(9105.429 4026.93)">
      <rect id="Rectangle_114-3" data-name="Rectangle 114" class="cls-3" width="320" height="160" transform="translate(160 230)"/>
      <text id="Name_Surname-3" data-name="Name Surname" class="cls-4" transform="translate(160 448)"><tspan x="0" y="0">Name Surname</tspan></text>
      <text id="CO-FOUNDER_CTO-3" data-name="CO-FOUNDER &amp; CTO" class="cls-5" transform="translate(160 469)"><tspan x="0" y="0">CO-FOUNDER &amp; CTO</tspan></text>
      <text id="Lorem_ipsum_dolor_sit_amet_consectetur_adipisicing_elit_sed_do_eiusmod_tempor_incididunt_ut_ero_labore_et_dolore.-3" data-name="Lorem ipsum dolor sit amet, consectetur adipisicing elit, sed do eiusmod tempor incididunt ut ero labore et dolore." class="cls-6" transform="translate(160 481)"><tspan x="0" y="13">Lorem ipsum dolor sit amet, consectetur adipisicing </tspan><tspan x="0" y="37">elit, sed do eiusmod tempor incididunt ut ero labore </tspan><tspan x="0" y="61">et dolore.</tspan></text>
      <path id="avatar-3" data-name="avatar" class="cls-7" d="M0,598.166V567.645C0,534.073,54.938,506.6,122.082,506.6s122.082,27.469,122.082,61.042v30.521ZM61.041,415.043a61.041,61.041,0,1,1,61.041,61.042A61.041,61.041,0,0,1,61.041,415.043Z" transform="translate(162 -208.167)"/>
      <g id="Social_Links-3" data-name="Social Links" transform="translate(-1089 -278)">
        <g id="Facebook-3" data-name="Facebook">
          <path id="Path_1-3" data-name="Path 1" class="cls-8" d="M85.422,16V8.711h2.489l.356-2.844H85.422V4.089c0-.8.267-1.422,1.422-1.422h1.511V.089C88,.089,87.111,0,86.133,0a3.431,3.431,0,0,0-3.644,3.733V5.867H80V8.711h2.489V16Z" transform="translate(1261 844)"/>
        </g>
        <g id="Twitter-3" data-name="Twitter">
          <path id="Path_2-3" data-name="Path 2" class="cls-8" d="M43.067,14.978A9.25,9.25,0,0,0,52.4,5.644V5.2A7.225,7.225,0,0,0,54,3.511a7.379,7.379,0,0,1-1.867.533,3.458,3.458,0,0,0,1.422-1.778,8.153,8.153,0,0,1-2.044.8A3.175,3.175,0,0,0,49.111,2a3.34,3.34,0,0,0-3.289,3.289A1.733,1.733,0,0,0,45.911,6a9.19,9.19,0,0,1-6.756-3.467,3.4,3.4,0,0,0-.444,1.689,3.532,3.532,0,0,0,1.422,2.756,3,3,0,0,1-1.511-.444h0a3.249,3.249,0,0,0,2.667,3.2,2.74,2.74,0,0,1-.889.089,1.513,1.513,0,0,1-.622-.089,3.367,3.367,0,0,0,3.111,2.311A6.711,6.711,0,0,1,38.8,13.467a2.461,2.461,0,0,1-.8-.089,8.39,8.39,0,0,0,5.067,1.6" transform="translate(1257 844)"/>
        </g>
        <g id="Instagram-3" data-name="Instagram">
          <path id="Path_3-3" data-name="Path 3" class="cls-8" d="M8,1.422a24.53,24.53,0,0,1,3.2.089,4.123,4.123,0,0,1,1.511.267,3.122,3.122,0,0,1,1.511,1.511A4.123,4.123,0,0,1,14.489,4.8c0,.8.089,1.067.089,3.2a24.53,24.53,0,0,1-.089,3.2,4.123,4.123,0,0,1-.267,1.511,3.122,3.122,0,0,1-1.511,1.511,4.123,4.123,0,0,1-1.511.267c-.8,0-1.067.089-3.2.089a24.53,24.53,0,0,1-3.2-.089,4.123,4.123,0,0,1-1.511-.267,3.122,3.122,0,0,1-1.511-1.511A4.123,4.123,0,0,1,1.511,11.2c0-.8-.089-1.067-.089-3.2a24.53,24.53,0,0,1,.089-3.2,4.123,4.123,0,0,1,.267-1.511A3.192,3.192,0,0,1,2.4,2.4a1.5,1.5,0,0,1,.889-.622A4.123,4.123,0,0,1,4.8,1.511,24.53,24.53,0,0,1,8,1.422M8,0A26.264,26.264,0,0,0,4.711.089,5.488,5.488,0,0,0,2.756.444a3.48,3.48,0,0,0-1.422.889A3.48,3.48,0,0,0,.444,2.756,4.05,4.05,0,0,0,.089,4.711,26.264,26.264,0,0,0,0,8a26.264,26.264,0,0,0,.089,3.289,5.488,5.488,0,0,0,.356,1.956,3.48,3.48,0,0,0,.889,1.422,3.48,3.48,0,0,0,1.422.889,5.488,5.488,0,0,0,1.956.356A26.264,26.264,0,0,0,8,16a26.264,26.264,0,0,0,3.289-.089,5.488,5.488,0,0,0,1.956-.356,3.729,3.729,0,0,0,2.311-2.311,5.488,5.488,0,0,0,.356-1.956C15.911,10.4,16,10.133,16,8a26.264,26.264,0,0,0-.089-3.289,5.488,5.488,0,0,0-.356-1.956,3.48,3.48,0,0,0-.889-1.422A3.48,3.48,0,0,0,13.244.444,5.488,5.488,0,0,0,11.289.089,26.264,26.264,0,0,0,8,0M8,3.911A4.023,4.023,0,0,0,3.911,8,4.089,4.089,0,1,0,8,3.911m0,6.756A2.619,2.619,0,0,1,5.333,8,2.619,2.619,0,0,1,8,5.333,2.619,2.619,0,0,1,10.667,8,2.619,2.619,0,0,1,8,10.667m4.267-7.911a.978.978,0,1,0,.978.978.986.986,0,0,0-.978-.978" transform="translate(1249 844)"/>
        </g>
        <g id="web-3" data-name="web">
          <path id="Path_4-3" data-name="Path 4" class="cls-9" d="M2.4,2.4A7.263,7.263,0,0,1,8,0a7.263,7.263,0,0,1,5.6,2.4A7.263,7.263,0,0,1,16,8a7.263,7.263,0,0,1-2.4,5.6A7.263,7.263,0,0,1,8,16a7.263,7.263,0,0,1-5.6-2.4A7.984,7.984,0,0,1,0,8,7.263,7.263,0,0,1,2.4,2.4Zm6.667,12a3.276,3.276,0,0,0,2-1.2A5.824,5.824,0,0,0,12,10.4a2.208,2.208,0,0,0-.667-1.6A2.347,2.347,0,0,0,9.6,8H8.267a3.893,3.893,0,0,1-1.2-.267,1.21,1.21,0,0,1-.4-.933.693.693,0,0,1,.267-.533A1.011,1.011,0,0,1,7.467,6a.91.91,0,0,1,.667.4c.267.133.4.267.533.267A.8.8,0,0,0,9.2,6.533.8.8,0,0,0,9.333,6a2.122,2.122,0,0,0-.667-1.333,5.515,5.515,0,0,0,.667-2.533.287.287,0,0,0-.267-.267A4.122,4.122,0,0,0,8,1.6,6.67,6.67,0,0,0,4.533,2.667a3.357,3.357,0,0,0-1.2,2.667A3.414,3.414,0,0,0,4.4,7.867,3.643,3.643,0,0,0,6.933,8.933h0v.533A1.712,1.712,0,0,0,7.467,10.8a1.942,1.942,0,0,0,1.2.8V14c0,.133,0,.133.133.267S8.933,14.4,9.067,14.4Z" transform="translate(1384 844)"/>
        </g>
      </g>
    </g>
    <g id="Team_Member-4" data-name="Team Member" transform="translate(9105.429 4588.93)">
      <rect id="Rectangle_114-4" data-name="Rectangle 114" class="cls-3" width="320" height="160" transform="translate(160 230)"/>
      <text id="Name_Surname-4" data-name="Name Surname" class="cls-4" transform="translate(160 448)"><tspan x="0" y="0">Name Surname</tspan></text>
      <text id="CO-FOUNDER_CTO-4" data-name="CO-FOUNDER &amp; CTO" class="cls-5" transform="translate(160 469)"><tspan x="0" y="0">CO-FOUNDER &amp; CTO</tspan></text>
      <text id="Lorem_ipsum_dolor_sit_amet_consectetur_adipisicing_elit_sed_do_eiusmod_tempor_incididunt_ut_ero_labore_et_dolore.-4" data-name="Lorem ipsum dolor sit amet, consectetur adipisicing elit, sed do eiusmod tempor incididunt ut ero labore et dolore." class="cls-6" transform="translate(160 481)"><tspan x="0" y="13">Lorem ipsum dolor sit amet, consectetur adipisicing </tspan><tspan x="0" y="37">elit, sed do eiusmod tempor incididunt ut ero labore </tspan><tspan x="0" y="61">et dolore.</tspan></text>
      <path id="avatar-4" data-name="avatar" class="cls-7" d="M0,598.166V567.645C0,534.073,54.938,506.6,122.082,506.6s122.082,27.469,122.082,61.042v30.521ZM61.041,415.043a61.041,61.041,0,1,1,61.041,61.042A61.041,61.041,0,0,1,61.041,415.043Z" transform="translate(162 -208.167)"/>
      <g id="Social_Links-4" data-name="Social Links" transform="translate(-1089 -278)">
        <g id="Facebook-4" data-name="Facebook">
          <path id="Path_1-4" data-name="Path 1" class="cls-8" d="M85.422,16V8.711h2.489l.356-2.844H85.422V4.089c0-.8.267-1.422,1.422-1.422h1.511V.089C88,.089,87.111,0,86.133,0a3.431,3.431,0,0,0-3.644,3.733V5.867H80V8.711h2.489V16Z" transform="translate(1261 844)"/>
        </g>
        <g id="Twitter-4" data-name="Twitter">
          <path id="Path_2-4" data-name="Path 2" class="cls-8" d="M43.067,14.978A9.25,9.25,0,0,0,52.4,5.644V5.2A7.225,7.225,0,0,0,54,3.511a7.379,7.379,0,0,1-1.867.533,3.458,3.458,0,0,0,1.422-1.778,8.153,8.153,0,0,1-2.044.8A3.175,3.175,0,0,0,49.111,2a3.34,3.34,0,0,0-3.289,3.289A1.733,1.733,0,0,0,45.911,6a9.19,9.19,0,0,1-6.756-3.467,3.4,3.4,0,0,0-.444,1.689,3.532,3.532,0,0,0,1.422,2.756,3,3,0,0,1-1.511-.444h0a3.249,3.249,0,0,0,2.667,3.2,2.74,2.74,0,0,1-.889.089,1.513,1.513,0,0,1-.622-.089,3.367,3.367,0,0,0,3.111,2.311A6.711,6.711,0,0,1,38.8,13.467a2.461,2.461,0,0,1-.8-.089,8.39,8.39,0,0,0,5.067,1.6" transform="translate(1257 844)"/>
        </g>
        <g id="Instagram-4" data-name="Instagram">
          <path id="Path_3-4" data-name="Path 3" class="cls-8" d="M8,1.422a24.53,24.53,0,0,1,3.2.089,4.123,4.123,0,0,1,1.511.267,3.122,3.122,0,0,1,1.511,1.511A4.123,4.123,0,0,1,14.489,4.8c0,.8.089,1.067.089,3.2a24.53,24.53,0,0,1-.089,3.2,4.123,4.123,0,0,1-.267,1.511,3.122,3.122,0,0,1-1.511,1.511,4.123,4.123,0,0,1-1.511.267c-.8,0-1.067.089-3.2.089a24.53,24.53,0,0,1-3.2-.089,4.123,4.123,0,0,1-1.511-.267,3.122,3.122,0,0,1-1.511-1.511A4.123,4.123,0,0,1,1.511,11.2c0-.8-.089-1.067-.089-3.2a24.53,24.53,0,0,1,.089-3.2,4.123,4.123,0,0,1,.267-1.511A3.192,3.192,0,0,1,2.4,2.4a1.5,1.5,0,0,1,.889-.622A4.123,4.123,0,0,1,4.8,1.511,24.53,24.53,0,0,1,8,1.422M8,0A26.264,26.264,0,0,0,4.711.089,5.488,5.488,0,0,0,2.756.444a3.48,3.48,0,0,0-1.422.889A3.48,3.48,0,0,0,.444,2.756,4.05,4.05,0,0,0,.089,4.711,26.264,26.264,0,0,0,0,8a26.264,26.264,0,0,0,.089,3.289,5.488,5.488,0,0,0,.356,1.956,3.48,3.48,0,0,0,.889,1.422,3.48,3.48,0,0,0,1.422.889,5.488,5.488,0,0,0,1.956.356A26.264,26.264,0,0,0,8,16a26.264,26.264,0,0,0,3.289-.089,5.488,5.488,0,0,0,1.956-.356,3.729,3.729,0,0,0,2.311-2.311,5.488,5.488,0,0,0,.356-1.956C15.911,10.4,16,10.133,16,8a26.264,26.264,0,0,0-.089-3.289,5.488,5.488,0,0,0-.356-1.956,3.48,3.48,0,0,0-.889-1.422A3.48,3.48,0,0,0,13.244.444,5.488,5.488,0,0,0,11.289.089,26.264,26.264,0,0,0,8,0M8,3.911A4.023,4.023,0,0,0,3.911,8,4.089,4.089,0,1,0,8,3.911m0,6.756A2.619,2.619,0,0,1,5.333,8,2.619,2.619,0,0,1,8,5.333,2.619,2.619,0,0,1,10.667,8,2.619,2.619,0,0,1,8,10.667m4.267-7.911a.978.978,0,1,0,.978.978.986.986,0,0,0-.978-.978" transform="translate(1249 844)"/>
        </g>
        <g id="web-4" data-name="web">
          <path id="Path_4-4" data-name="Path 4" class="cls-9" d="M2.4,2.4A7.263,7.263,0,0,1,8,0a7.263,7.263,0,0,1,5.6,2.4A7.263,7.263,0,0,1,16,8a7.263,7.263,0,0,1-2.4,5.6A7.263,7.263,0,0,1,8,16a7.263,7.263,0,0,1-5.6-2.4A7.984,7.984,0,0,1,0,8,7.263,7.263,0,0,1,2.4,2.4Zm6.667,12a3.276,3.276,0,0,0,2-1.2A5.824,5.824,0,0,0,12,10.4a2.208,2.208,0,0,0-.667-1.6A2.347,2.347,0,0,0,9.6,8H8.267a3.893,3.893,0,0,1-1.2-.267,1.21,1.21,0,0,1-.4-.933.693.693,0,0,1,.267-.533A1.011,1.011,0,0,1,7.467,6a.91.91,0,0,1,.667.4c.267.133.4.267.533.267A.8.8,0,0,0,9.2,6.533.8.8,0,0,0,9.333,6a2.122,2.122,0,0,0-.667-1.333,5.515,5.515,0,0,0,.667-2.533.287.287,0,0,0-.267-.267A4.122,4.122,0,0,0,8,1.6,6.67,6.67,0,0,0,4.533,2.667a3.357,3.357,0,0,0-1.2,2.667A3.414,3.414,0,0,0,4.4,7.867,3.643,3.643,0,0,0,6.933,8.933h0v.533A1.712,1.712,0,0,0,7.467,10.8a1.942,1.942,0,0,0,1.2.8V14c0,.133,0,.133.133.267S8.933,14.4,9.067,14.4Z" transform="translate(1384 844)"/>
        </g>
      </g>
    </g>
    <g id="Team_Member-5" data-name="Team Member" transform="translate(8345.429 4026.93)">
      <rect id="Rectangle_114-5" data-name="Rectangle 114" class="cls-3" width="320" height="160" transform="translate(160 230)"/>
      <text id="Name_Surname-5" data-name="Name Surname" class="cls-4" transform="translate(160 448)"><tspan x="0" y="0">Name Surname</tspan></text>
      <text id="CO-FOUNDER_CTO-5" data-name="CO-FOUNDER &amp; CTO" class="cls-5" transform="translate(160 469)"><tspan x="0" y="0">CO-FOUNDER &amp; CTO</tspan></text>
      <text id="Lorem_ipsum_dolor_sit_amet_consectetur_adipisicing_elit_sed_do_eiusmod_tempor_incididunt_ut_ero_labore_et_dolore.-5" data-name="Lorem ipsum dolor sit amet, consectetur adipisicing elit, sed do eiusmod tempor incididunt ut ero labore et dolore." class="cls-6" transform="translate(160 481)"><tspan x="0" y="13">Lorem ipsum dolor sit amet, consectetur adipisicing </tspan><tspan x="0" y="37">elit, sed do eiusmod tempor incididunt ut ero labore </tspan><tspan x="0" y="61">et dolore.</tspan></text>
      <path id="avatar-5" data-name="avatar" class="cls-7" d="M0,598.166V567.645C0,534.073,54.938,506.6,122.082,506.6s122.082,27.469,122.082,61.042v30.521ZM61.041,415.043a61.041,61.041,0,1,1,61.041,61.042A61.041,61.041,0,0,1,61.041,415.043Z" transform="translate(162 -208.167)"/>
      <g id="Social_Links-5" data-name="Social Links" transform="translate(-1089 -278)">
        <g id="Facebook-5" data-name="Facebook">
          <path id="Path_1-5" data-name="Path 1" class="cls-8" d="M85.422,16V8.711h2.489l.356-2.844H85.422V4.089c0-.8.267-1.422,1.422-1.422h1.511V.089C88,.089,87.111,0,86.133,0a3.431,3.431,0,0,0-3.644,3.733V5.867H80V8.711h2.489V16Z" transform="translate(1261 844)"/>
        </g>
        <g id="Twitter-5" data-name="Twitter">
          <path id="Path_2-5" data-name="Path 2" class="cls-8" d="M43.067,14.978A9.25,9.25,0,0,0,52.4,5.644V5.2A7.225,7.225,0,0,0,54,3.511a7.379,7.379,0,0,1-1.867.533,3.458,3.458,0,0,0,1.422-1.778,8.153,8.153,0,0,1-2.044.8A3.175,3.175,0,0,0,49.111,2a3.34,3.34,0,0,0-3.289,3.289A1.733,1.733,0,0,0,45.911,6a9.19,9.19,0,0,1-6.756-3.467,3.4,3.4,0,0,0-.444,1.689,3.532,3.532,0,0,0,1.422,2.756,3,3,0,0,1-1.511-.444h0a3.249,3.249,0,0,0,2.667,3.2,2.74,2.74,0,0,1-.889.089,1.513,1.513,0,0,1-.622-.089,3.367,3.367,0,0,0,3.111,2.311A6.711,6.711,0,0,1,38.8,13.467a2.461,2.461,0,0,1-.8-.089,8.39,8.39,0,0,0,5.067,1.6" transform="translate(1257 844)"/>
        </g>
        <g id="Instagram-5" data-name="Instagram">
          <path id="Path_3-5" data-name="Path 3" class="cls-8" d="M8,1.422a24.53,24.53,0,0,1,3.2.089,4.123,4.123,0,0,1,1.511.267,3.122,3.122,0,0,1,1.511,1.511A4.123,4.123,0,0,1,14.489,4.8c0,.8.089,1.067.089,3.2a24.53,24.53,0,0,1-.089,3.2,4.123,4.123,0,0,1-.267,1.511,3.122,3.122,0,0,1-1.511,1.511,4.123,4.123,0,0,1-1.511.267c-.8,0-1.067.089-3.2.089a24.53,24.53,0,0,1-3.2-.089,4.123,4.123,0,0,1-1.511-.267,3.122,3.122,0,0,1-1.511-1.511A4.123,4.123,0,0,1,1.511,11.2c0-.8-.089-1.067-.089-3.2a24.53,24.53,0,0,1,.089-3.2,4.123,4.123,0,0,1,.267-1.511A3.192,3.192,0,0,1,2.4,2.4a1.5,1.5,0,0,1,.889-.622A4.123,4.123,0,0,1,4.8,1.511,24.53,24.53,0,0,1,8,1.422M8,0A26.264,26.264,0,0,0,4.711.089,5.488,5.488,0,0,0,2.756.444a3.48,3.48,0,0,0-1.422.889A3.48,3.48,0,0,0,.444,2.756,4.05,4.05,0,0,0,.089,4.711,26.264,26.264,0,0,0,0,8a26.264,26.264,0,0,0,.089,3.289,5.488,5.488,0,0,0,.356,1.956,3.48,3.48,0,0,0,.889,1.422,3.48,3.48,0,0,0,1.422.889,5.488,5.488,0,0,0,1.956.356A26.264,26.264,0,0,0,8,16a26.264,26.264,0,0,0,3.289-.089,5.488,5.488,0,0,0,1.956-.356,3.729,3.729,0,0,0,2.311-2.311,5.488,5.488,0,0,0,.356-1.956C15.911,10.4,16,10.133,16,8a26.264,26.264,0,0,0-.089-3.289,5.488,5.488,0,0,0-.356-1.956,3.48,3.48,0,0,0-.889-1.422A3.48,3.48,0,0,0,13.244.444,5.488,5.488,0,0,0,11.289.089,26.264,26.264,0,0,0,8,0M8,3.911A4.023,4.023,0,0,0,3.911,8,4.089,4.089,0,1,0,8,3.911m0,6.756A2.619,2.619,0,0,1,5.333,8,2.619,2.619,0,0,1,8,5.333,2.619,2.619,0,0,1,10.667,8,2.619,2.619,0,0,1,8,10.667m4.267-7.911a.978.978,0,1,0,.978.978.986.986,0,0,0-.978-.978" transform="translate(1249 844)"/>
        </g>
        <g id="web-5" data-name="web">
          <path id="Path_4-5" data-name="Path 4" class="cls-9" d="M2.4,2.4A7.263,7.263,0,0,1,8,0a7.263,7.263,0,0,1,5.6,2.4A7.263,7.263,0,0,1,16,8a7.263,7.263,0,0,1-2.4,5.6A7.263,7.263,0,0,1,8,16a7.263,7.263,0,0,1-5.6-2.4A7.984,7.984,0,0,1,0,8,7.263,7.263,0,0,1,2.4,2.4Zm6.667,12a3.276,3.276,0,0,0,2-1.2A5.824,5.824,0,0,0,12,10.4a2.208,2.208,0,0,0-.667-1.6A2.347,2.347,0,0,0,9.6,8H8.267a3.893,3.893,0,0,1-1.2-.267,1.21,1.21,0,0,1-.4-.933.693.693,0,0,1,.267-.533A1.011,1.011,0,0,1,7.467,6a.91.91,0,0,1,.667.4c.267.133.4.267.533.267A.8.8,0,0,0,9.2,6.533.8.8,0,0,0,9.333,6a2.122,2.122,0,0,0-.667-1.333,5.515,5.515,0,0,0,.667-2.533.287.287,0,0,0-.267-.267A4.122,4.122,0,0,0,8,1.6,6.67,6.67,0,0,0,4.533,2.667a3.357,3.357,0,0,0-1.2,2.667A3.414,3.414,0,0,0,4.4,7.867,3.643,3.643,0,0,0,6.933,8.933h0v.533A1.712,1.712,0,0,0,7.467,10.8a1.942,1.942,0,0,0,1.2.8V14c0,.133,0,.133.133.267S8.933,14.4,9.067,14.4Z" transform="translate(1384 844)"/>
        </g>
      </g>
    </g>
    <g id="Team_Member-6" data-name="Team Member" transform="translate(8345.429 4588.93)">
      <rect id="Rectangle_114-6" data-name="Rectangle 114" class="cls-3" width="320" height="160" transform="translate(160 230)"/>
      <text id="Name_Surname-6" data-name="Name Surname" class="cls-4" transform="translate(160 448)"><tspan x="0" y="0">Name Surname</tspan></text>
      <text id="CO-FOUNDER_CTO-6" data-name="CO-FOUNDER &amp; CTO" class="cls-5" transform="translate(160 469)"><tspan x="0" y="0">CO-FOUNDER &amp; CTO</tspan></text>
      <text id="Lorem_ipsum_dolor_sit_amet_consectetur_adipisicing_elit_sed_do_eiusmod_tempor_incididunt_ut_ero_labore_et_dolore.-6" data-name="Lorem ipsum dolor sit amet, consectetur adipisicing elit, sed do eiusmod tempor incididunt ut ero labore et dolore." class="cls-6" transform="translate(160 481)"><tspan x="0" y="13">Lorem ipsum dolor sit amet, consectetur adipisicing </tspan><tspan x="0" y="37">elit, sed do eiusmod tempor incididunt ut ero labore </tspan><tspan x="0" y="61">et dolore.</tspan></text>
      <path id="avatar-6" data-name="avatar" class="cls-7" d="M0,598.166V567.645C0,534.073,54.938,506.6,122.082,506.6s122.082,27.469,122.082,61.042v30.521ZM61.041,415.043a61.041,61.041,0,1,1,61.041,61.042A61.041,61.041,0,0,1,61.041,415.043Z" transform="translate(162 -208.167)"/>
      <g id="Social_Links-6" data-name="Social Links" transform="translate(-1089 -278)">
        <g id="Facebook-6" data-name="Facebook">
          <path id="Path_1-6" data-name="Path 1" class="cls-8" d="M85.422,16V8.711h2.489l.356-2.844H85.422V4.089c0-.8.267-1.422,1.422-1.422h1.511V.089C88,.089,87.111,0,86.133,0a3.431,3.431,0,0,0-3.644,3.733V5.867H80V8.711h2.489V16Z" transform="translate(1261 844)"/>
        </g>
        <g id="Twitter-6" data-name="Twitter">
          <path id="Path_2-6" data-name="Path 2" class="cls-8" d="M43.067,14.978A9.25,9.25,0,0,0,52.4,5.644V5.2A7.225,7.225,0,0,0,54,3.511a7.379,7.379,0,0,1-1.867.533,3.458,3.458,0,0,0,1.422-1.778,8.153,8.153,0,0,1-2.044.8A3.175,3.175,0,0,0,49.111,2a3.34,3.34,0,0,0-3.289,3.289A1.733,1.733,0,0,0,45.911,6a9.19,9.19,0,0,1-6.756-3.467,3.4,3.4,0,0,0-.444,1.689,3.532,3.532,0,0,0,1.422,2.756,3,3,0,0,1-1.511-.444h0a3.249,3.249,0,0,0,2.667,3.2,2.74,2.74,0,0,1-.889.089,1.513,1.513,0,0,1-.622-.089,3.367,3.367,0,0,0,3.111,2.311A6.711,6.711,0,0,1,38.8,13.467a2.461,2.461,0,0,1-.8-.089,8.39,8.39,0,0,0,5.067,1.6" transform="translate(1257 844)"/>
        </g>
        <g id="Instagram-6" data-name="Instagram">
          <path id="Path_3-6" data-name="Path 3" class="cls-8" d="M8,1.422a24.53,24.53,0,0,1,3.2.089,4.123,4.123,0,0,1,1.511.267,3.122,3.122,0,0,1,1.511,1.511A4.123,4.123,0,0,1,14.489,4.8c0,.8.089,1.067.089,3.2a24.53,24.53,0,0,1-.089,3.2,4.123,4.123,0,0,1-.267,1.511,3.122,3.122,0,0,1-1.511,1.511,4.123,4.123,0,0,1-1.511.267c-.8,0-1.067.089-3.2.089a24.53,24.53,0,0,1-3.2-.089,4.123,4.123,0,0,1-1.511-.267,3.122,3.122,0,0,1-1.511-1.511A4.123,4.123,0,0,1,1.511,11.2c0-.8-.089-1.067-.089-3.2a24.53,24.53,0,0,1,.089-3.2,4.123,4.123,0,0,1,.267-1.511A3.192,3.192,0,0,1,2.4,2.4a1.5,1.5,0,0,1,.889-.622A4.123,4.123,0,0,1,4.8,1.511,24.53,24.53,0,0,1,8,1.422M8,0A26.264,26.264,0,0,0,4.711.089,5.488,5.488,0,0,0,2.756.444a3.48,3.48,0,0,0-1.422.889A3.48,3.48,0,0,0,.444,2.756,4.05,4.05,0,0,0,.089,4.711,26.264,26.264,0,0,0,0,8a26.264,26.264,0,0,0,.089,3.289,5.488,5.488,0,0,0,.356,1.956,3.48,3.48,0,0,0,.889,1.422,3.48,3.48,0,0,0,1.422.889,5.488,5.488,0,0,0,1.956.356A26.264,26.264,0,0,0,8,16a26.264,26.264,0,0,0,3.289-.089,5.488,5.488,0,0,0,1.956-.356,3.729,3.729,0,0,0,2.311-2.311,5.488,5.488,0,0,0,.356-1.956C15.911,10.4,16,10.133,16,8a26.264,26.264,0,0,0-.089-3.289,5.488,5.488,0,0,0-.356-1.956,3.48,3.48,0,0,0-.889-1.422A3.48,3.48,0,0,0,13.244.444,5.488,5.488,0,0,0,11.289.089,26.264,26.264,0,0,0,8,0M8,3.911A4.023,4.023,0,0,0,3.911,8,4.089,4.089,0,1,0,8,3.911m0,6.756A2.619,2.619,0,0,1,5.333,8,2.619,2.619,0,0,1,8,5.333,2.619,2.619,0,0,1,10.667,8,2.619,2.619,0,0,1,8,10.667m4.267-7.911a.978.978,0,1,0,.978.978.986.986,0,0,0-.978-.978" transform="translate(1249 844)"/>
        </g>
        <g id="web-6" data-name="web">
          <path id="Path_4-6" data-name="Path 4" class="cls-9" d="M2.4,2.4A7.263,7.263,0,0,1,8,0a7.263,7.263,0,0,1,5.6,2.4A7.263,7.263,0,0,1,16,8a7.263,7.263,0,0,1-2.4,5.6A7.263,7.263,0,0,1,8,16a7.263,7.263,0,0,1-5.6-2.4A7.984,7.984,0,0,1,0,8,7.263,7.263,0,0,1,2.4,2.4Zm6.667,12a3.276,3.276,0,0,0,2-1.2A5.824,5.824,0,0,0,12,10.4a2.208,2.208,0,0,0-.667-1.6A2.347,2.347,0,0,0,9.6,8H8.267a3.893,3.893,0,0,1-1.2-.267,1.21,1.21,0,0,1-.4-.933.693.693,0,0,1,.267-.533A1.011,1.011,0,0,1,7.467,6a.91.91,0,0,1,.667.4c.267.133.4.267.533.267A.8.8,0,0,0,9.2,6.533.8.8,0,0,0,9.333,6a2.122,2.122,0,0,0-.667-1.333,5.515,5.515,0,0,0,.667-2.533.287.287,0,0,0-.267-.267A4.122,4.122,0,0,0,8,1.6,6.67,6.67,0,0,0,4.533,2.667a3.357,3.357,0,0,0-1.2,2.667A3.414,3.414,0,0,0,4.4,7.867,3.643,3.643,0,0,0,6.933,8.933h0v.533A1.712,1.712,0,0,0,7.467,10.8a1.942,1.942,0,0,0,1.2.8V14c0,.133,0,.133.133.267S8.933,14.4,9.067,14.4Z" transform="translate(1384 844)"/>
        </g>
      </g>
    </g>
    <g id="Team_Member-7" data-name="Team Member" transform="translate(7965.429 4026.93)">
      <rect id="Rectangle_114-7" data-name="Rectangle 114" class="cls-3" width="320" height="160" transform="translate(160 230)"/>
      <text id="Name_Surname-7" data-name="Name Surname" class="cls-4" transform="translate(160 448)"><tspan x="0" y="0">Name Surname</tspan></text>
      <text id="CO-FOUNDER_CTO-7" data-name="CO-FOUNDER &amp; CTO" class="cls-5" transform="translate(160 469)"><tspan x="0" y="0">CO-FOUNDER &amp; CTO</tspan></text>
      <text id="Lorem_ipsum_dolor_sit_amet_consectetur_adipisicing_elit_sed_do_eiusmod_tempor_incididunt_ut_ero_labore_et_dolore.-7" data-name="Lorem ipsum dolor sit amet, consectetur adipisicing elit, sed do eiusmod tempor incididunt ut ero labore et dolore." class="cls-6" transform="translate(160 481)"><tspan x="0" y="13">Lorem ipsum dolor sit amet, consectetur adipisicing </tspan><tspan x="0" y="37">elit, sed do eiusmod tempor incididunt ut ero labore </tspan><tspan x="0" y="61">et dolore.</tspan></text>
      <path id="avatar-7" data-name="avatar" class="cls-7" d="M0,598.166V567.645C0,534.073,54.938,506.6,122.082,506.6s122.082,27.469,122.082,61.042v30.521ZM61.041,415.043a61.041,61.041,0,1,1,61.041,61.042A61.041,61.041,0,0,1,61.041,415.043Z" transform="translate(162 -208.167)"/>
      <g id="Social_Links-7" data-name="Social Links" transform="translate(-1089 -278)">
        <g id="Facebook-7" data-name="Facebook">
          <path id="Path_1-7" data-name="Path 1" class="cls-8" d="M85.422,16V8.711h2.489l.356-2.844H85.422V4.089c0-.8.267-1.422,1.422-1.422h1.511V.089C88,.089,87.111,0,86.133,0a3.431,3.431,0,0,0-3.644,3.733V5.867H80V8.711h2.489V16Z" transform="translate(1261 844)"/>
        </g>
        <g id="Twitter-7" data-name="Twitter">
          <path id="Path_2-7" data-name="Path 2" class="cls-8" d="M43.067,14.978A9.25,9.25,0,0,0,52.4,5.644V5.2A7.225,7.225,0,0,0,54,3.511a7.379,7.379,0,0,1-1.867.533,3.458,3.458,0,0,0,1.422-1.778,8.153,8.153,0,0,1-2.044.8A3.175,3.175,0,0,0,49.111,2a3.34,3.34,0,0,0-3.289,3.289A1.733,1.733,0,0,0,45.911,6a9.19,9.19,0,0,1-6.756-3.467,3.4,3.4,0,0,0-.444,1.689,3.532,3.532,0,0,0,1.422,2.756,3,3,0,0,1-1.511-.444h0a3.249,3.249,0,0,0,2.667,3.2,2.74,2.74,0,0,1-.889.089,1.513,1.513,0,0,1-.622-.089,3.367,3.367,0,0,0,3.111,2.311A6.711,6.711,0,0,1,38.8,13.467a2.461,2.461,0,0,1-.8-.089,8.39,8.39,0,0,0,5.067,1.6" transform="translate(1257 844)"/>
        </g>
        <g id="Instagram-7" data-name="Instagram">
          <path id="Path_3-7" data-name="Path 3" class="cls-8" d="M8,1.422a24.53,24.53,0,0,1,3.2.089,4.123,4.123,0,0,1,1.511.267,3.122,3.122,0,0,1,1.511,1.511A4.123,4.123,0,0,1,14.489,4.8c0,.8.089,1.067.089,3.2a24.53,24.53,0,0,1-.089,3.2,4.123,4.123,0,0,1-.267,1.511,3.122,3.122,0,0,1-1.511,1.511,4.123,4.123,0,0,1-1.511.267c-.8,0-1.067.089-3.2.089a24.53,24.53,0,0,1-3.2-.089,4.123,4.123,0,0,1-1.511-.267,3.122,3.122,0,0,1-1.511-1.511A4.123,4.123,0,0,1,1.511,11.2c0-.8-.089-1.067-.089-3.2a24.53,24.53,0,0,1,.089-3.2,4.123,4.123,0,0,1,.267-1.511A3.192,3.192,0,0,1,2.4,2.4a1.5,1.5,0,0,1,.889-.622A4.123,4.123,0,0,1,4.8,1.511,24.53,24.53,0,0,1,8,1.422M8,0A26.264,26.264,0,0,0,4.711.089,5.488,5.488,0,0,0,2.756.444a3.48,3.48,0,0,0-1.422.889A3.48,3.48,0,0,0,.444,2.756,4.05,4.05,0,0,0,.089,4.711,26.264,26.264,0,0,0,0,8a26.264,26.264,0,0,0,.089,3.289,5.488,5.488,0,0,0,.356,1.956,3.48,3.48,0,0,0,.889,1.422,3.48,3.48,0,0,0,1.422.889,5.488,5.488,0,0,0,1.956.356A26.264,26.264,0,0,0,8,16a26.264,26.264,0,0,0,3.289-.089,5.488,5.488,0,0,0,1.956-.356,3.729,3.729,0,0,0,2.311-2.311,5.488,5.488,0,0,0,.356-1.956C15.911,10.4,16,10.133,16,8a26.264,26.264,0,0,0-.089-3.289,5.488,5.488,0,0,0-.356-1.956,3.48,3.48,0,0,0-.889-1.422A3.48,3.48,0,0,0,13.244.444,5.488,5.488,0,0,0,11.289.089,26.264,26.264,0,0,0,8,0M8,3.911A4.023,4.023,0,0,0,3.911,8,4.089,4.089,0,1,0,8,3.911m0,6.756A2.619,2.619,0,0,1,5.333,8,2.619,2.619,0,0,1,8,5.333,2.619,2.619,0,0,1,10.667,8,2.619,2.619,0,0,1,8,10.667m4.267-7.911a.978.978,0,1,0,.978.978.986.986,0,0,0-.978-.978" transform="translate(1249 844)"/>
        </g>
        <g id="web-7" data-name="web">
          <path id="Path_4-7" data-name="Path 4" class="cls-9" d="M2.4,2.4A7.263,7.263,0,0,1,8,0a7.263,7.263,0,0,1,5.6,2.4A7.263,7.263,0,0,1,16,8a7.263,7.263,0,0,1-2.4,5.6A7.263,7.263,0,0,1,8,16a7.263,7.263,0,0,1-5.6-2.4A7.984,7.984,0,0,1,0,8,7.263,7.263,0,0,1,2.4,2.4Zm6.667,12a3.276,3.276,0,0,0,2-1.2A5.824,5.824,0,0,0,12,10.4a2.208,2.208,0,0,0-.667-1.6A2.347,2.347,0,0,0,9.6,8H8.267a3.893,3.893,0,0,1-1.2-.267,1.21,1.21,0,0,1-.4-.933.693.693,0,0,1,.267-.533A1.011,1.011,0,0,1,7.467,6a.91.91,0,0,1,.667.4c.267.133.4.267.533.267A.8.8,0,0,0,9.2,6.533.8.8,0,0,0,9.333,6a2.122,2.122,0,0,0-.667-1.333,5.515,5.515,0,0,0,.667-2.533.287.287,0,0,0-.267-.267A4.122,4.122,0,0,0,8,1.6,6.67,6.67,0,0,0,4.533,2.667a3.357,3.357,0,0,0-1.2,2.667A3.414,3.414,0,0,0,4.4,7.867,3.643,3.643,0,0,0,6.933,8.933h0v.533A1.712,1.712,0,0,0,7.467,10.8a1.942,1.942,0,0,0,1.2.8V14c0,.133,0,.133.133.267S8.933,14.4,9.067,14.4Z" transform="translate(1384 844)"/>
        </g>
      </g>
    </g>
    <g id="Team_Member-8" data-name="Team Member" transform="translate(7965.429 4588.93)">
      <rect id="Rectangle_114-8" data-name="Rectangle 114" class="cls-3" width="320" height="160" transform="translate(160 230)"/>
      <text id="Name_Surname-8" data-name="Name Surname" class="cls-4" transform="translate(160 448)"><tspan x="0" y="0">Name Surname</tspan></text>
      <text id="CO-FOUNDER_CTO-8" data-name="CO-FOUNDER &amp; CTO" class="cls-5" transform="translate(160 469)"><tspan x="0" y="0">CO-FOUNDER &amp; CTO</tspan></text>
      <text id="Lorem_ipsum_dolor_sit_amet_consectetur_adipisicing_elit_sed_do_eiusmod_tempor_incididunt_ut_ero_labore_et_dolore.-8" data-name="Lorem ipsum dolor sit amet, consectetur adipisicing elit, sed do eiusmod tempor incididunt ut ero labore et dolore." class="cls-6" transform="translate(160 481)"><tspan x="0" y="13">Lorem ipsum dolor sit amet, consectetur adipisicing </tspan><tspan x="0" y="37">elit, sed do eiusmod tempor incididunt ut ero labore </tspan><tspan x="0" y="61">et dolore.</tspan></text>
      <path id="avatar-8" data-name="avatar" class="cls-7" d="M0,598.166V567.645C0,534.073,54.938,506.6,122.082,506.6s122.082,27.469,122.082,61.042v30.521ZM61.041,415.043a61.041,61.041,0,1,1,61.041,61.042A61.041,61.041,0,0,1,61.041,415.043Z" transform="translate(162 -208.167)"/>
      <g id="Social_Links-8" data-name="Social Links" transform="translate(-1089 -278)">
        <g id="Facebook-8" data-name="Facebook">
          <path id="Path_1-8" data-name="Path 1" class="cls-8" d="M85.422,16V8.711h2.489l.356-2.844H85.422V4.089c0-.8.267-1.422,1.422-1.422h1.511V.089C88,.089,87.111,0,86.133,0a3.431,3.431,0,0,0-3.644,3.733V5.867H80V8.711h2.489V16Z" transform="translate(1261 844)"/>
        </g>
        <g id="Twitter-8" data-name="Twitter">
          <path id="Path_2-8" data-name="Path 2" class="cls-8" d="M43.067,14.978A9.25,9.25,0,0,0,52.4,5.644V5.2A7.225,7.225,0,0,0,54,3.511a7.379,7.379,0,0,1-1.867.533,3.458,3.458,0,0,0,1.422-1.778,8.153,8.153,0,0,1-2.044.8A3.175,3.175,0,0,0,49.111,2a3.34,3.34,0,0,0-3.289,3.289A1.733,1.733,0,0,0,45.911,6a9.19,9.19,0,0,1-6.756-3.467,3.4,3.4,0,0,0-.444,1.689,3.532,3.532,0,0,0,1.422,2.756,3,3,0,0,1-1.511-.444h0a3.249,3.249,0,0,0,2.667,3.2,2.74,2.74,0,0,1-.889.089,1.513,1.513,0,0,1-.622-.089,3.367,3.367,0,0,0,3.111,2.311A6.711,6.711,0,0,1,38.8,13.467a2.461,2.461,0,0,1-.8-.089,8.39,8.39,0,0,0,5.067,1.6" transform="translate(1257 844)"/>
        </g>
        <g id="Instagram-8" data-name="Instagram">
          <path id="Path_3-8" data-name="Path 3" class="cls-8" d="M8,1.422a24.53,24.53,0,0,1,3.2.089,4.123,4.123,0,0,1,1.511.267,3.122,3.122,0,0,1,1.511,1.511A4.123,4.123,0,0,1,14.489,4.8c0,.8.089,1.067.089,3.2a24.53,24.53,0,0,1-.089,3.2,4.123,4.123,0,0,1-.267,1.511,3.122,3.122,0,0,1-1.511,1.511,4.123,4.123,0,0,1-1.511.267c-.8,0-1.067.089-3.2.089a24.53,24.53,0,0,1-3.2-.089,4.123,4.123,0,0,1-1.511-.267,3.122,3.122,0,0,1-1.511-1.511A4.123,4.123,0,0,1,1.511,11.2c0-.8-.089-1.067-.089-3.2a24.53,24.53,0,0,1,.089-3.2,4.123,4.123,0,0,1,.267-1.511A3.192,3.192,0,0,1,2.4,2.4a1.5,1.5,0,0,1,.889-.622A4.123,4.123,0,0,1,4.8,1.511,24.53,24.53,0,0,1,8,1.422M8,0A26.264,26.264,0,0,0,4.711.089,5.488,5.488,0,0,0,2.756.444a3.48,3.48,0,0,0-1.422.889A3.48,3.48,0,0,0,.444,2.756,4.05,4.05,0,0,0,.089,4.711,26.264,26.264,0,0,0,0,8a26.264,26.264,0,0,0,.089,3.289,5.488,5.488,0,0,0,.356,1.956,3.48,3.48,0,0,0,.889,1.422,3.48,3.48,0,0,0,1.422.889,5.488,5.488,0,0,0,1.956.356A26.264,26.264,0,0,0,8,16a26.264,26.264,0,0,0,3.289-.089,5.488,5.488,0,0,0,1.956-.356,3.729,3.729,0,0,0,2.311-2.311,5.488,5.488,0,0,0,.356-1.956C15.911,10.4,16,10.133,16,8a26.264,26.264,0,0,0-.089-3.289,5.488,5.488,0,0,0-.356-1.956,3.48,3.48,0,0,0-.889-1.422A3.48,3.48,0,0,0,13.244.444,5.488,5.488,0,0,0,11.289.089,26.264,26.264,0,0,0,8,0M8,3.911A4.023,4.023,0,0,0,3.911,8,4.089,4.089,0,1,0,8,3.911m0,6.756A2.619,2.619,0,0,1,5.333,8,2.619,2.619,0,0,1,8,5.333,2.619,2.619,0,0,1,10.667,8,2.619,2.619,0,0,1,8,10.667m4.267-7.911a.978.978,0,1,0,.978.978.986.986,0,0,0-.978-.978" transform="translate(1249 844)"/>
        </g>
        <g id="web-8" data-name="web">
          <path id="Path_4-8" data-name="Path 4" class="cls-9" d="M2.4,2.4A7.263,7.263,0,0,1,8,0a7.263,7.263,0,0,1,5.6,2.4A7.263,7.263,0,0,1,16,8a7.263,7.263,0,0,1-2.4,5.6A7.263,7.263,0,0,1,8,16a7.263,7.263,0,0,1-5.6-2.4A7.984,7.984,0,0,1,0,8,7.263,7.263,0,0,1,2.4,2.4Zm6.667,12a3.276,3.276,0,0,0,2-1.2A5.824,5.824,0,0,0,12,10.4a2.208,2.208,0,0,0-.667-1.6A2.347,2.347,0,0,0,9.6,8H8.267a3.893,3.893,0,0,1-1.2-.267,1.21,1.21,0,0,1-.4-.933.693.693,0,0,1,.267-.533A1.011,1.011,0,0,1,7.467,6a.91.91,0,0,1,.667.4c.267.133.4.267.533.267A.8.8,0,0,0,9.2,6.533.8.8,0,0,0,9.333,6a2.122,2.122,0,0,0-.667-1.333,5.515,5.515,0,0,0,.667-2.533.287.287,0,0,0-.267-.267A4.122,4.122,0,0,0,8,1.6,6.67,6.67,0,0,0,4.533,2.667a3.357,3.357,0,0,0-1.2,2.667A3.414,3.414,0,0,0,4.4,7.867,3.643,3.643,0,0,0,6.933,8.933h0v.533A1.712,1.712,0,0,0,7.467,10.8a1.942,1.942,0,0,0,1.2.8V14c0,.133,0,.133.133.267S8.933,14.4,9.067,14.4Z" transform="translate(1384 844)"/>
        </g>
      </g>
    </g>
    <line id="Line_5" data-name="Line 5" class="cls-10" x2="1592" transform="translate(8053.5 3020.5)"/>
    <g id="Group_455" data-name="Group 455" transform="translate(7906 4109)">
      <rect id="Base-2" data-name="Base" class="cls-3" width="1927" height="321.167" transform="translate(-3 1270.924)"/>
      <path id="Path_692" data-name="Path 692" class="cls-11" d="M86.349,18.735V10.2h2.914l.416-3.331H86.349V4.788c0-.937.312-1.665,1.665-1.665h1.769V.1c-.416,0-1.457-.1-2.6-.1a4.018,4.018,0,0,0-4.267,4.371v2.5H80V10.2h2.914v8.535Z" transform="translate(1766.385 1616.178)"/>
      <path id="Path_693" data-name="Path 693" class="cls-11" d="M43.933,17.2A10.831,10.831,0,0,0,54.861,6.267v-.52a8.46,8.46,0,0,0,1.873-1.978,8.64,8.64,0,0,1-2.186.624,4.049,4.049,0,0,0,1.665-2.082,9.547,9.547,0,0,1-2.394.937A3.717,3.717,0,0,0,51.01,2a3.91,3.91,0,0,0-3.851,3.851,2.029,2.029,0,0,0,.1.833,10.761,10.761,0,0,1-7.91-4.059,3.986,3.986,0,0,0-.52,1.978A4.135,4.135,0,0,0,40.5,7.829a3.509,3.509,0,0,1-1.769-.52h0a3.8,3.8,0,0,0,3.122,3.747,3.209,3.209,0,0,1-1.041.1,1.771,1.771,0,0,1-.729-.1,3.943,3.943,0,0,0,3.643,2.706,7.858,7.858,0,0,1-4.788,1.665,2.882,2.882,0,0,1-.937-.1A9.824,9.824,0,0,0,43.933,17.2" transform="translate(1749.504 1615.516)"/>
      <path id="Path_694" data-name="Path 694" class="cls-11" d="M9.367,1.665a28.722,28.722,0,0,1,3.747.1,4.827,4.827,0,0,1,1.769.312,3.655,3.655,0,0,1,1.769,1.769,4.827,4.827,0,0,1,.312,1.769c0,.937.1,1.249.1,3.747a28.722,28.722,0,0,1-.1,3.747,4.828,4.828,0,0,1-.312,1.769,3.655,3.655,0,0,1-1.769,1.769,4.827,4.827,0,0,1-1.769.312c-.937,0-1.249.1-3.747.1a28.722,28.722,0,0,1-3.747-.1,4.828,4.828,0,0,1-1.769-.312,3.655,3.655,0,0,1-1.769-1.769,4.827,4.827,0,0,1-.312-1.769c0-.937-.1-1.249-.1-3.747a28.722,28.722,0,0,1,.1-3.747,4.827,4.827,0,0,1,.312-1.769A3.738,3.738,0,0,1,2.81,2.81a1.76,1.76,0,0,1,1.041-.729A4.827,4.827,0,0,1,5.62,1.769a28.722,28.722,0,0,1,3.747-.1M9.367,0A30.753,30.753,0,0,0,5.516.1,6.426,6.426,0,0,0,3.227.52,4.075,4.075,0,0,0,1.561,1.561,4.075,4.075,0,0,0,.52,3.227,4.742,4.742,0,0,0,.1,5.516,30.753,30.753,0,0,0,0,9.367a30.753,30.753,0,0,0,.1,3.851,6.426,6.426,0,0,0,.416,2.29,4.075,4.075,0,0,0,1.041,1.665,4.075,4.075,0,0,0,1.665,1.041,6.426,6.426,0,0,0,2.29.416,30.753,30.753,0,0,0,3.851.1,30.753,30.753,0,0,0,3.851-.1,6.426,6.426,0,0,0,2.29-.416,4.367,4.367,0,0,0,2.706-2.706,6.426,6.426,0,0,0,.416-2.29c0-1.041.1-1.353.1-3.851a30.753,30.753,0,0,0-.1-3.851,6.426,6.426,0,0,0-.416-2.29,4.075,4.075,0,0,0-1.041-1.665A4.075,4.075,0,0,0,15.508.52,6.426,6.426,0,0,0,13.218.1,30.753,30.753,0,0,0,9.367,0m0,4.58A4.711,4.711,0,0,0,4.58,9.367,4.788,4.788,0,1,0,9.367,4.58m0,7.91A3.067,3.067,0,0,1,6.245,9.367,3.067,3.067,0,0,1,9.367,6.245,3.067,3.067,0,0,1,12.49,9.367,3.067,3.067,0,0,1,9.367,12.49m5-9.263a1.145,1.145,0,1,0,1.145,1.145,1.155,1.155,0,0,0-1.145-1.145" transform="translate(1728.623 1616.178)"/>
      <text id="CONTACT_US_ORDERING_PAYMENT_SHIPPING_RETURNS_FAQ_SIZING_GUIDE" data-name="CONTACT USORDERING &amp; PAYMENTSHIPPINGRETURNSFAQSIZING GUIDE" class="cls-12" transform="translate(1271.235 1349.833)"><tspan x="0" y="0">CONTACT US</tspan><tspan x="0" y="34">ORDERING &amp; PAYMENT</tspan><tspan x="0" y="68">SHIPPING</tspan><tspan x="0" y="102">RETURNS</tspan><tspan x="0" y="136">FAQ</tspan><tspan x="0" y="170">SIZING GUIDE</tspan></text>
      <text id="ABOUT_ADOBE_XD_KIT_WORK_WITH_US_PRIVACY_POLICY_TERMS_CONDITIONS_PRESS_ENQUIRIES" data-name="ABOUT ADOBE XD KITWORK WITH USPRIVACY POLICYTERMS &amp; CONDITIONSPRESS ENQUIRIES" class="cls-12" transform="translate(1509.434 1349.833)"><tspan x="0" y="0">ABOUT ADOBE XD KIT</tspan><tspan x="0" y="34">WORK WITH US</tspan><tspan x="0" y="68">PRIVACY POLICY</tspan><tspan x="0" y="102">TERMS &amp; CONDITIONS</tspan><tspan x="0" y="136">PRESS ENQUIRIES</tspan></text>
      <text id="Excepteur_sint_occaecat_cupidatat_non_proident_sunt_in_culpa_qui_officia" data-name="Excepteur sint occaecat cupidatat non proident, sunt in culpa qui officia" class="cls-13" transform="translate(275.91 1386.008)"><tspan x="0" y="13">Excepteur sint occaecat cupidatat non proident, sunt in culpa qui officia</tspan></text>
      <text id="Subscribe_to_AdobeXD_via_Email" data-name="Subscribe to AdobeXD via Email" class="cls-14" transform="translate(275.91 1353.833)"><tspan x="0" y="0">Subscribe to AdobeXD via Email</tspan></text>
      <g id="Symbol_51" data-name="Symbol 51" transform="translate(371.694 1466.3)">
        <rect id="Rectangle_1" data-name="Rectangle 1" class="cls-3" width="160.583" height="53.528" rx="4" transform="translate(-95)"/>
        <text id="SUBSCRIBE" class="cls-15" transform="translate(-18.516 31.073)"><tspan x="-35.338" y="0">SUBSCRIBE</tspan></text>
      </g>
      <text id="_44_345_678_903_ADOBEXD_MAIL.COM_FIND_A_STORE" data-name="+44 345 678 903ADOBEXD@MAIL.COMFIND A STORE" class="cls-12" transform="translate(1043.742 1349.833)"><tspan x="0" y="0">+44 345 678 903</tspan><tspan x="0" y="34">ADOBEXD@MAIL.COM</tspan><tspan x="0" y="68">FIND A STORE</tspan></text>
      <line id="Line_49" data-name="Line 49" class="cls-10" x2="1706" transform="translate(106.5 1591.5)"/>
      <line id="Line_50" data-name="Line 50" class="cls-10" x2="1706" transform="translate(106.5 1266.5)"/>
      <g id="Rectangle_534" data-name="Rectangle 534" class="cls-16" transform="translate(4 1592)">
        <rect class="cls-20" width="103" height="67"/>
        <rect class="cls-17" x="0.5" y="0.5" width="102" height="66"/>
      </g>
    </g>
    <g id="Symbol_52" data-name="Symbol 52" transform="translate(9477.514 2926.856)">
      <rect id="Rectangle_392" data-name="Rectangle 392" class="cls-17" width="21.943" height="18.286" transform="translate(0 0)"/>
      <path id="Path_1-9" data-name="Path 1" class="cls-11" d="M86.2,18.286V9.956h2.844L89.448,6.7H86.2V4.673c0-.914.3-1.625,1.625-1.625h1.727V.1c-.406,0-1.422-.1-2.54-.1a3.921,3.921,0,0,0-4.165,4.267V6.7H80V9.956h2.844v8.33Z" transform="translate(-74.514 0.001)"/>
    </g>
    <g id="Symbol_53" data-name="Symbol 53" transform="translate(9419.914 2926.858)">
      <rect id="Rectangle_393" data-name="Rectangle 393" class="cls-17" width="21.943" height="18.286" transform="translate(0)"/>
      <path id="Path_2-9" data-name="Path 2" class="cls-11" d="M43.79,16.832A10.572,10.572,0,0,0,54.457,6.165V5.657a8.258,8.258,0,0,0,1.829-1.93,8.433,8.433,0,0,1-2.133.61A3.952,3.952,0,0,0,55.778,2.3a9.318,9.318,0,0,1-2.337.914A3.628,3.628,0,0,0,50.7,2,3.817,3.817,0,0,0,46.94,5.759a1.98,1.98,0,0,0,.1.813A10.5,10.5,0,0,1,39.321,2.61a3.89,3.89,0,0,0-.508,1.93,4.036,4.036,0,0,0,1.625,3.149,3.425,3.425,0,0,1-1.727-.508h0a3.713,3.713,0,0,0,3.048,3.657,3.132,3.132,0,0,1-1.016.1,1.729,1.729,0,0,1-.711-.1,3.849,3.849,0,0,0,3.556,2.641A7.67,7.67,0,0,1,38.914,15.1,2.812,2.812,0,0,1,38,15a9.589,9.589,0,0,0,5.79,1.829" transform="translate(-38 0.285)"/>
    </g>
    <g id="Symbol_54" data-name="Symbol 54" transform="translate(9356.828 2926.857)">
      <path id="Path_3-9" data-name="Path 3" class="cls-11" d="M9.143,1.625a28.034,28.034,0,0,1,3.657.1,4.712,4.712,0,0,1,1.727.3,3.568,3.568,0,0,1,1.727,1.727,4.712,4.712,0,0,1,.3,1.727c0,.914.1,1.219.1,3.657a28.034,28.034,0,0,1-.1,3.657,4.712,4.712,0,0,1-.3,1.727,3.568,3.568,0,0,1-1.727,1.727,4.712,4.712,0,0,1-1.727.3c-.914,0-1.219.1-3.657.1a28.034,28.034,0,0,1-3.657-.1,4.712,4.712,0,0,1-1.727-.3,3.568,3.568,0,0,1-1.727-1.727,4.712,4.712,0,0,1-.3-1.727c0-.914-.1-1.219-.1-3.657a28.034,28.034,0,0,1,.1-3.657,4.712,4.712,0,0,1,.3-1.727,3.649,3.649,0,0,1,.711-1.016,1.718,1.718,0,0,1,1.016-.711,4.712,4.712,0,0,1,1.727-.3,28.034,28.034,0,0,1,3.657-.1M9.143,0A30.016,30.016,0,0,0,5.384.1,6.272,6.272,0,0,0,3.149.508,3.977,3.977,0,0,0,1.524,1.524,3.977,3.977,0,0,0,.508,3.149,4.629,4.629,0,0,0,.1,5.384,30.016,30.016,0,0,0,0,9.143,30.016,30.016,0,0,0,.1,12.9a6.272,6.272,0,0,0,.406,2.235,3.977,3.977,0,0,0,1.016,1.625,3.977,3.977,0,0,0,1.625,1.016,6.272,6.272,0,0,0,2.235.406,30.016,30.016,0,0,0,3.759.1,30.016,30.016,0,0,0,3.759-.1,6.272,6.272,0,0,0,2.235-.406,4.262,4.262,0,0,0,2.641-2.641,6.272,6.272,0,0,0,.406-2.235c0-1.016.1-1.321.1-3.759a30.016,30.016,0,0,0-.1-3.759,6.272,6.272,0,0,0-.406-2.235,3.977,3.977,0,0,0-1.016-1.625A3.977,3.977,0,0,0,15.137.508,6.272,6.272,0,0,0,12.9.1,30.016,30.016,0,0,0,9.143,0m0,4.47A4.6,4.6,0,0,0,4.47,9.143,4.673,4.673,0,1,0,9.143,4.47m0,7.721A2.993,2.993,0,0,1,6.1,9.143,2.993,2.993,0,0,1,9.143,6.1,2.993,2.993,0,0,1,12.19,9.143,2.993,2.993,0,0,1,9.143,12.19m4.876-9.041a1.117,1.117,0,1,0,1.117,1.117,1.127,1.127,0,0,0-1.117-1.117" transform="translate(0 0)"/>
    </g>
    <g id="Symbol_55" data-name="Symbol 55" transform="translate(9541.972 2926.857)">
      <path id="Path_4-9" data-name="Path 4" d="M2.743,2.743A8.3,8.3,0,0,1,9.143,0a8.3,8.3,0,0,1,6.4,2.743,8.3,8.3,0,0,1,2.743,6.4,8.3,8.3,0,0,1-2.743,6.4,8.3,8.3,0,0,1-6.4,2.743,8.3,8.3,0,0,1-6.4-2.743A9.124,9.124,0,0,1,0,9.143,8.3,8.3,0,0,1,2.743,2.743Zm7.619,13.714a3.744,3.744,0,0,0,2.286-1.371,6.656,6.656,0,0,0,1.067-3.2,2.523,2.523,0,0,0-.762-1.829,2.682,2.682,0,0,0-1.981-.914H9.448a4.449,4.449,0,0,1-1.371-.3,1.383,1.383,0,0,1-.457-1.067.792.792,0,0,1,.3-.61,1.155,1.155,0,0,1,.61-.3,1.04,1.04,0,0,1,.762.457c.3.152.457.3.61.3a.916.916,0,0,0,.61-.152.916.916,0,0,0,.152-.61A2.425,2.425,0,0,0,9.9,5.333a6.3,6.3,0,0,0,.762-2.9.328.328,0,0,0-.3-.3,4.711,4.711,0,0,0-1.219-.3A7.623,7.623,0,0,0,5.181,3.048,3.836,3.836,0,0,0,3.81,6.1a3.9,3.9,0,0,0,1.219,2.9,4.163,4.163,0,0,0,2.9,1.219h0v.61a1.956,1.956,0,0,0,.61,1.524,2.219,2.219,0,0,0,1.371.914V16c0,.152,0,.152.152.3S10.21,16.457,10.362,16.457Z" transform="translate(0 0)"/>
    </g>
    <text id="ABOUT_US" data-name="ABOUT US" class="cls-18" transform="translate(8667.457 2940.286)"><tspan x="0" y="0">ABOUT US</tspan></text>
    <text id="CASE_STUDIES" data-name="CASE STUDIES" class="cls-18" transform="translate(8805.229 2940.286)"><tspan x="0" y="0">CASE STUDIES</tspan></text>
    <text id="BLOG" class="cls-18" transform="translate(8966.629 2940.286)"><tspan x="0" y="0">BLOG</tspan></text>
    <text id="CONTACT" class="cls-18" transform="translate(9071.6 2940.286)"><tspan x="0" y="0">CONTACT</tspan></text>
    <path id="Path_695" data-name="Path 695" class="cls-19" d="M22.818,62.089H0V56.253H17.676V49.5H22.79v12.59Zm0-33.546-3.307,1.112v7.921l3.307,1.2v6.253L0,35.881V31.295l22.818-9.06ZM7.087,33.518V33.6l7.81,2.335v-4.78ZM20.845,2.084c2,2.335,1.973,4.5,1.973,7.448v7.254H0V9.755C0,7.032.028,4.447,2.223,2.474A5.313,5.313,0,0,1,5.975,1.112a5.111,5.111,0,0,1,4.586,2.64A5.207,5.207,0,0,1,15.87,0,6.614,6.614,0,0,1,20.845,2.084ZM5.114,8.977v2.251H8.671V9C8.671,7.754,8.31,6.7,6.865,6.7,5.392,6.7,5.114,7.754,5.114,8.977Zm8.421-.695V11.2H17.7V8.31c0-1.445-.5-2.751-2.2-2.751C13.869,5.586,13.535,6.92,13.535,8.282ZM66.258,0C52.89,0,42.579,9.644,42.579,23.179c0,8,3.78,15.092,11.145,18.732a18.094,18.094,0,0,0,8.088,1.973,9.068,9.068,0,0,0,2.974-.334l.167.167L51.5,62.2H69.566L84.741,39.855c3.557-5.2,5.864-10.561,5.864-16.9,0-5.447-1.39-10.728-5.114-14.925C80.711,2.557,73.429,0,66.258,0Zm.334,31.378a9.45,9.45,0,1,1,9.45-9.45A9.442,9.442,0,0,1,66.592,31.378ZM97.164,0h15.592V62.173H97.164V0Zm50.694,18.288a8.823,8.823,0,0,0-2.974.334l-.167-.167L158.169.056H140.1L124.929,22.318c-3.307,4.864-5.614,10.395-5.614,16.314,0,14.091,10.228,23.6,24.069,23.6,13.368,0,23.68-9.811,23.68-23.263C167.063,27.848,159.392,18.288,147.858,18.288Zm-4.78,31.406a9.45,9.45,0,1,1,9.45-9.45A9.442,9.442,0,0,1,143.078,49.694ZM33.907.056H32.8V62.228h1.112Z" transform="translate(8127.019 2913.836)"/>
  </g>
</svg>
